<?xml version="1.0" encoding="utf-8"?>
<!-- Generator: Adobe Illustrator 24.2.3, SVG Export Plug-In . SVG Version: 6.00 Build 0)  -->
<svg version="1.1" id="Camada_1" xmlns="http://www.w3.org/2000/svg" xmlns:xlink="http://www.w3.org/1999/xlink" x="0px" y="0px"
	 viewBox="0 0 100 100" style="enable-background:new 0 0 100 100;" xml:space="preserve">
<style type="text/css">
	.st0{fill:#FFFFFF;}
</style>
<g>
	<g>
		<g>
			<path class="st0" d="M82.93,68.95H17.06c-0.34,0-0.62-0.28-0.62-0.62V28.77c0-2.08,1.69-3.77,3.77-3.77h59.57
				c2.08,0,3.77,1.69,3.77,3.77v39.56C83.55,68.67,83.28,68.95,82.93,68.95z M17.68,67.71h64.64V28.77c0-1.4-1.14-2.54-2.53-2.54
				H20.21c-1.4,0-2.53,1.14-2.53,2.54V67.71z"/>
		</g>
		<g>
			<path class="st0" d="M78.88,64.9H21.12c-0.34,0-0.62-0.28-0.62-0.62V29.67c0-0.34,0.28-0.62,0.62-0.62h57.76
				c0.34,0,0.62,0.28,0.62,0.62v34.61C79.5,64.62,79.22,64.9,78.88,64.9z M21.74,63.66h56.53V30.29H21.74V63.66z"/>
		</g>
		<g>
			<path class="st0" d="M82.94,75H17.06c-2.53,0-4.59-1.64-4.59-3.64v-3.03c0-0.34,0.28-0.62,0.62-0.62h73.83
				c0.34,0,0.62,0.28,0.62,0.62v3.03C87.53,73.36,85.47,75,82.94,75z M13.7,68.95v2.41c0,1.31,1.54,2.41,3.36,2.41h65.88
				c1.82,0,3.36-1.1,3.36-2.41v-2.41H13.7z"/>
		</g>
		<g>
			<path class="st0" d="M50,73.3c-1.07,0-1.94-0.87-1.94-1.94c0-1.07,0.87-1.94,1.94-1.94c1.07,0,1.94,0.87,1.94,1.94
				C51.94,72.42,51.07,73.3,50,73.3z M50,70.65c-0.39,0-0.7,0.32-0.7,0.7c0,0.39,0.32,0.71,0.7,0.71c0.39,0,0.71-0.32,0.71-0.71
				C50.7,70.97,50.39,70.65,50,70.65z"/>
		</g>
		<g>
			<path class="st0" d="M41.02,58.59h-3.79c-0.34,0-0.62-0.28-0.62-0.62v-9.02c0-0.34,0.28-0.62,0.62-0.62h3.79
				c0.34,0,0.62,0.28,0.62,0.62v9.02C41.64,58.31,41.37,58.59,41.02,58.59z M37.85,57.36h2.56v-7.78h-2.56V57.36z"/>
		</g>
		<g>
			<path class="st0" d="M48.27,58.59h-3.79c-0.34,0-0.62-0.28-0.62-0.62V46.35c0-0.34,0.28-0.62,0.62-0.62h3.79
				c0.34,0,0.62,0.28,0.62,0.62v11.63C48.89,58.31,48.61,58.59,48.27,58.59z M45.1,57.36h2.55V46.96H45.1V57.36z"/>
		</g>
		<g>
			<path class="st0" d="M55.52,58.59h-3.79c-0.34,0-0.62-0.28-0.62-0.62V44.32c0-0.34,0.28-0.62,0.62-0.62h3.79
				c0.34,0,0.62,0.28,0.62,0.62v13.65C56.14,58.31,55.86,58.59,55.52,58.59z M52.35,57.36h2.56V44.94h-2.56V57.36z"/>
		</g>
		<g>
			<path class="st0" d="M62.76,58.59h-3.79c-0.34,0-0.62-0.28-0.62-0.62V40.86c0-0.34,0.28-0.62,0.62-0.62h3.79
				c0.34,0,0.62,0.28,0.62,0.62v17.11C63.38,58.31,63.11,58.59,62.76,58.59z M59.6,57.36h2.55V41.48H59.6V57.36z"/>
		</g>
		<g>
			<path class="st0" d="M63.25,61.43H35.83c-0.34,0-0.62-0.28-0.62-0.62s0.28-0.62,0.62-0.62h27.43c0.34,0,0.62,0.28,0.62,0.62
				S63.59,61.43,63.25,61.43z"/>
		</g>
	</g>
</g>
<g>
	<g>
		<g>
			<path class="st0" d="M230.81,77.84h-37.6c-1.93,0-3.51-1.58-3.51-3.51V30.24c0-2.25,1.83-4.08,4.08-4.08h37.03
				c0.27,0,0.48,0.22,0.48,0.48v11.07c0,0.12-0.05,0.24-0.13,0.33l-11.32,11.79l-0.41,6.82l6.44-1.01l4.59-4.78
				c0.14-0.14,0.35-0.19,0.53-0.11c0.18,0.07,0.3,0.25,0.3,0.45v26.14C231.29,77.62,231.07,77.84,230.81,77.84z M193.78,27.13
				c-1.72,0-3.12,1.4-3.12,3.12v44.08c0,1.4,1.14,2.55,2.54,2.55h37.12V52.41l-3.87,4.04c-0.07,0.08-0.17,0.13-0.27,0.14l-7.2,1.13
				c-0.14,0.02-0.29-0.02-0.4-0.12c-0.11-0.1-0.17-0.24-0.16-0.39l0.46-7.6c0.01-0.11,0.05-0.22,0.13-0.3l11.3-11.78v-10.4H193.78z"
				/>
		</g>
		<g>
			<path class="st0" d="M197.96,77.68c-0.27,0-0.48-0.22-0.48-0.48V26.75c0-0.27,0.22-0.48,0.48-0.48c0.27,0,0.48,0.22,0.48,0.48
				V77.2C198.44,77.46,198.22,77.68,197.96,77.68z"/>
		</g>
		<g>
			<path class="st0" d="M194.07,37.14c-1.18,0-2.14-0.96-2.14-2.14c0-1.18,0.96-2.14,2.14-2.14s2.14,0.96,2.14,2.14
				C196.2,36.17,195.24,37.14,194.07,37.14z M194.07,33.82c-0.65,0-1.17,0.53-1.17,1.17c0,0.65,0.53,1.18,1.17,1.18
				s1.17-0.53,1.17-1.18C195.24,34.34,194.71,33.82,194.07,33.82z"/>
		</g>
		<g>
			<path class="st0" d="M194.07,45.63c-1.18,0-2.14-0.96-2.14-2.14c0-1.18,0.96-2.14,2.14-2.14s2.14,0.96,2.14,2.14
				C196.2,44.67,195.24,45.63,194.07,45.63z M194.07,42.32c-0.65,0-1.17,0.53-1.17,1.17c0,0.65,0.53,1.17,1.17,1.17
				s1.17-0.53,1.17-1.17C195.24,42.85,194.71,42.32,194.07,42.32z"/>
		</g>
		<g>
			<path class="st0" d="M194.07,54.14c-1.18,0-2.14-0.96-2.14-2.14c0-1.18,0.96-2.14,2.14-2.14s2.14,0.96,2.14,2.14
				C196.2,53.18,195.24,54.14,194.07,54.14z M194.07,50.83c-0.65,0-1.17,0.53-1.17,1.17c0,0.65,0.53,1.17,1.17,1.17
				s1.17-0.53,1.17-1.17C195.24,51.35,194.71,50.83,194.07,50.83z"/>
		</g>
		<g>
			<path class="st0" d="M194.07,62.63c-1.18,0-2.14-0.96-2.14-2.14c0-1.18,0.96-2.14,2.14-2.14s2.14,0.96,2.14,2.14
				C196.2,61.67,195.24,62.63,194.07,62.63z M194.07,59.32c-0.65,0-1.17,0.53-1.17,1.17c0,0.65,0.53,1.17,1.17,1.17
				c0.66,0,1.17-0.52,1.17-1.17C195.24,59.85,194.71,59.32,194.07,59.32z"/>
		</g>
		<g>
			<path class="st0" d="M194.07,71.14c-1.18,0-2.14-0.96-2.14-2.14c0-1.18,0.96-2.14,2.14-2.14s2.14,0.96,2.14,2.14
				C196.2,70.18,195.24,71.14,194.07,71.14z M194.07,67.83c-0.65,0-1.17,0.53-1.17,1.17c0,0.65,0.53,1.17,1.17,1.17
				s1.17-0.53,1.17-1.17C195.24,68.35,194.71,67.83,194.07,67.83z"/>
		</g>
		<g>
			<path class="st0" d="M216.26,36.76h-11.53c-0.27,0-0.48-0.22-0.48-0.48s0.22-0.48,0.48-0.48h11.53c0.27,0,0.48,0.22,0.48,0.48
				S216.52,36.76,216.26,36.76z"/>
		</g>
		<g>
			<path class="st0" d="M216.26,47.24h-11.53c-0.27,0-0.48-0.22-0.48-0.48c0-0.27,0.22-0.48,0.48-0.48h11.53
				c0.27,0,0.48,0.22,0.48,0.48C216.74,47.02,216.52,47.24,216.26,47.24z"/>
		</g>
		<g>
			<path class="st0" d="M218.88,57.72h-14.16c-0.27,0-0.48-0.22-0.48-0.48c0-0.27,0.22-0.48,0.48-0.48h14.16
				c0.27,0,0.48,0.22,0.48,0.48C219.37,57.51,219.15,57.72,218.88,57.72z"/>
		</g>
		<g>
			<path class="st0" d="M225.44,68.2h-20.71c-0.27,0-0.48-0.22-0.48-0.48c0-0.27,0.22-0.48,0.48-0.48h20.71
				c0.27,0,0.48,0.22,0.48,0.48C225.92,67.98,225.7,68.2,225.44,68.2z"/>
		</g>
		<g>
			<path class="st0" d="M218.91,57.72c-0.12,0-0.23-0.04-0.32-0.13c-0.11-0.1-0.17-0.24-0.16-0.39l0.46-7.6
				c0.01-0.11,0.05-0.22,0.13-0.3l21.02-21.91c0.57-0.59,1.33-0.92,2.16-0.92c0.78,0,1.51,0.3,2.07,0.83l3.12,2.99
				c1.19,1.14,1.23,3.04,0.09,4.23l-21.02,21.91c-0.07,0.08-0.17,0.13-0.27,0.14l-7.2,1.13C218.96,57.72,218.93,57.72,218.91,57.72z
				 M219.84,49.85l-0.41,6.82l6.44-1.01l20.91-21.79c0.77-0.81,0.75-2.09-0.06-2.87l-3.12-2.99c-0.78-0.75-2.12-0.72-2.87,0.06
				L219.84,49.85z"/>
		</g>
		<g>
			<path class="st0" d="M245.33,36.55c-0.12,0-0.24-0.04-0.33-0.13l-6.74-6.47c-0.19-0.18-0.2-0.49-0.02-0.68
				c0.19-0.19,0.49-0.2,0.68-0.02l6.75,6.47c0.19,0.18,0.2,0.49,0.01,0.68C245.58,36.5,245.46,36.55,245.33,36.55z"/>
		</g>
		<g>
			<path class="st0" d="M226.1,56.59c-0.12,0-0.24-0.04-0.33-0.13l-6.74-6.47c-0.19-0.18-0.2-0.49-0.01-0.68
				c0.19-0.19,0.49-0.2,0.68-0.01l6.74,6.47c0.19,0.18,0.2,0.49,0.01,0.68C226.36,56.54,226.23,56.59,226.1,56.59z"/>
		</g>
		<g>
			<path class="st0" d="M222.74,53.35c-0.12,0-0.24-0.04-0.33-0.13c-0.19-0.18-0.2-0.49-0.01-0.68l19.22-20.03
				c0.18-0.19,0.49-0.2,0.68-0.01c0.19,0.18,0.2,0.49,0.01,0.68L223.08,53.2C222.99,53.3,222.86,53.35,222.74,53.35z"/>
		</g>
	</g>
</g>
<g>
	<g>
		<g>
			<path class="st0" d="M193.99-1.18c-0.05,0-0.1-0.01-0.15-0.02c-0.22-0.06-0.38-0.25-0.41-0.47L192-13.43h-1.67
				c-2.4,0-4.36-1.95-4.36-4.35v-31.13c0-2.4,1.95-4.35,4.36-4.35h44.03c2.4,0,4.35,1.95,4.35,4.35v31.13c0,2.4-1.95,4.35-4.35,4.35
				h-30.79L194.43-1.4C194.32-1.26,194.16-1.18,193.99-1.18z M190.33-52.14c-1.79,0-3.24,1.45-3.24,3.23v31.13
				c0,1.78,1.45,3.23,3.24,3.23h2.17c0.28,0,0.52,0.21,0.56,0.49l1.33,10.88l8.47-11.15c0.11-0.14,0.27-0.22,0.45-0.22h31.06
				c1.78,0,3.23-1.45,3.23-3.23v-31.13c0-1.78-1.45-3.23-3.23-3.23H190.33z"/>
		</g>
		<g>
			<path class="st0" d="M246.01,9.26c-0.17,0-0.34-0.08-0.45-0.22l-9.13-12.02h-30.79c-2.4,0-4.35-1.95-4.35-4.35v-4.76
				c0-0.12,0.04-0.24,0.11-0.34l1.44-1.89c0.11-0.14,0.27-0.22,0.45-0.22h31.06c1.78,0,3.23-1.45,3.23-3.23v-24.48
				c0-0.31,0.25-0.56,0.56-0.56h11.53c2.4,0,4.35,1.95,4.35,4.35v31.13c0,2.4-1.95,4.35-4.35,4.35H248l-1.43,11.75
				c-0.03,0.23-0.19,0.41-0.41,0.47C246.11,9.25,246.06,9.26,246.01,9.26z M202.41-11.91v4.57c0,1.78,1.45,3.23,3.23,3.23h31.07
				c0.17,0,0.34,0.08,0.45,0.22l8.46,11.14l1.33-10.87c0.03-0.28,0.27-0.49,0.56-0.49h2.17c1.78,0,3.23-1.45,3.23-3.23v-31.13
				c0-1.78-1.45-3.23-3.23-3.23h-10.97v23.92c0,2.4-1.95,4.35-4.35,4.35h-30.79L202.41-11.91z"/>
		</g>
		<g>
			<path class="st0" d="M231.55-40.7h-38.43c-0.31,0-0.56-0.25-0.56-0.56c0-0.31,0.25-0.56,0.56-0.56h38.43
				c0.31,0,0.56,0.25,0.56,0.56C232.11-40.95,231.86-40.7,231.55-40.7z"/>
		</g>
		<g>
			<path class="st0" d="M231.55-33.68h-38.43c-0.31,0-0.56-0.25-0.56-0.56c0-0.31,0.25-0.56,0.56-0.56h38.43
				c0.31,0,0.56,0.25,0.56,0.56C232.11-33.93,231.86-33.68,231.55-33.68z"/>
		</g>
		<g>
			<path class="st0" d="M231.55-26.66h-38.43c-0.31,0-0.56-0.25-0.56-0.56c0-0.31,0.25-0.56,0.56-0.56h38.43
				c0.31,0,0.56,0.25,0.56,0.56C232.11-26.91,231.86-26.66,231.55-26.66z"/>
		</g>
	</g>
</g>
<g>
	<g>
		<g>
			<path class="st0" d="M250.96-65.16h-61.93c-1.62,0-2.94-1.33-2.94-2.95v-41.76c0-1.63,1.32-2.95,2.94-2.95h61.93
				c1.63,0,2.95,1.33,2.95,2.95v41.76C253.91-66.49,252.59-65.16,250.96-65.16z M189.03-111.72c-1.01,0-1.83,0.82-1.83,1.84v41.76
				c0,1.01,0.82,1.84,1.83,1.84h61.93c1.01,0,1.83-0.82,1.83-1.84v-41.76c0-1.01-0.82-1.84-1.83-1.84H189.03z"/>
		</g>
		<g>
			<path class="st0" d="M253.35-103.19h-66.71c-0.31,0-0.56-0.25-0.56-0.56c0-0.31,0.25-0.56,0.56-0.56h66.71
				c0.31,0,0.56,0.25,0.56,0.56C253.91-103.44,253.66-103.19,253.35-103.19z"/>
		</g>
		<g>
			<path class="st0" d="M192.98-105.69h-3.53c-0.31,0-0.56-0.25-0.56-0.56v-3.53c0-0.31,0.25-0.56,0.56-0.56h3.53
				c0.31,0,0.56,0.25,0.56,0.56v3.53C193.54-105.94,193.29-105.69,192.98-105.69z M190.01-106.81h2.42v-2.42h-2.42V-106.81z"/>
		</g>
		<g>
			<path class="st0" d="M199.85-105.69h-3.53c-0.31,0-0.56-0.25-0.56-0.56v-3.53c0-0.31,0.25-0.56,0.56-0.56h3.53
				c0.31,0,0.56,0.25,0.56,0.56v3.53C200.4-105.94,200.15-105.69,199.85-105.69z M196.88-106.81h2.41v-2.42h-2.41V-106.81z"/>
		</g>
		<g>
			<path class="st0" d="M206.71-105.69h-3.53c-0.31,0-0.56-0.25-0.56-0.56v-3.53c0-0.31,0.25-0.56,0.56-0.56h3.53
				c0.31,0,0.56,0.25,0.56,0.56v3.53C207.27-105.94,207.02-105.69,206.71-105.69z M203.74-106.81h2.41v-2.42h-2.41V-106.81z"/>
		</g>
		<g>
			<path class="st0" d="M208.81-72.86c-0.13,0-0.25-0.04-0.36-0.13l-13.99-11.63c-0.13-0.11-0.2-0.26-0.2-0.43
				c0-0.17,0.07-0.32,0.2-0.43l13.24-11.01c0.24-0.2,0.59-0.16,0.79,0.07c0.2,0.24,0.16,0.59-0.07,0.79l-12.72,10.58l13.48,11.2
				c0.24,0.2,0.27,0.55,0.07,0.79C209.13-72.93,208.97-72.86,208.81-72.86z"/>
		</g>
		<g>
			<path class="st0" d="M231.18-72.86c-0.16,0-0.32-0.07-0.43-0.2c-0.2-0.24-0.16-0.59,0.07-0.79l13.47-11.2l-12.72-10.58
				c-0.24-0.2-0.27-0.55-0.07-0.79c0.2-0.24,0.55-0.27,0.79-0.07l13.24,11.01c0.13,0.11,0.2,0.26,0.2,0.43
				c0,0.17-0.07,0.32-0.2,0.43l-13.98,11.63C231.44-72.9,231.31-72.86,231.18-72.86z"/>
		</g>
		<g id="XMLID_5565_">
			<path id="XMLID_5576_" class="st0" d="M215.49-85.84c0,0.65,0.04,1.23,0.24,2.07c0.36,1.47,1.24,3.48,1.55,4.16
				c-0.13,0.19-0.2,0.41-0.21,0.63c0,0.29,0.1,0.55,0.29,0.76c-0.18,0.2-0.29,0.46-0.29,0.74c0,0.32,0.13,0.62,0.36,0.84
				c-0.16,0.2-0.26,0.44-0.26,0.71c-0.01,0.65,0.56,1.19,1.27,1.2l4.58,0.06c0.01,0,0.01,0,0.02,0c0.35,0,0.69-0.13,0.93-0.37
				c0.22-0.22,0.35-0.5,0.35-0.8c0-0.32-0.13-0.62-0.36-0.84c0.16-0.2,0.26-0.44,0.26-0.71c0-0.28-0.1-0.55-0.29-0.76
				c0.18-0.2,0.29-0.46,0.29-0.74c0-0.29-0.11-0.55-0.29-0.76c0.32-0.71,1.18-2.68,1.53-4.13c0.2-0.84,0.24-1.42,0.24-2.07
				c0-2.81-2.29-5.1-5.1-5.1C217.78-90.94,215.49-88.65,215.49-85.84z M223.43-75.59c-0.1,0.1-0.24,0.16-0.39,0.15l-4.58-0.06
				c-0.28,0-0.51-0.19-0.5-0.42c0-0.17,0.14-0.33,0.35-0.38c0.18-0.05,0.3-0.21,0.29-0.39c-0.01-0.18-0.14-0.33-0.32-0.36
				c-0.24-0.04-0.41-0.22-0.41-0.41c0-0.16,0.13-0.32,0.32-0.38c0.16-0.05,0.27-0.2,0.27-0.37c0-0.17-0.11-0.32-0.27-0.37
				c-0.2-0.06-0.33-0.22-0.33-0.39c0-0.07,0.03-0.13,0.06-0.18h5.42c0.07,0.07,0.11,0.16,0.11,0.26c0,0.16-0.13,0.32-0.32,0.37
				c-0.16,0.05-0.27,0.2-0.27,0.37c0,0.17,0.11,0.32,0.27,0.37c0.2,0.06,0.33,0.22,0.33,0.39c0,0.17-0.14,0.33-0.35,0.38
				c-0.18,0.05-0.3,0.21-0.29,0.39c0.01,0.18,0.14,0.33,0.32,0.36c0.24,0.04,0.41,0.22,0.41,0.41
				C223.54-75.73,223.48-75.64,223.43-75.59z M220.6-90.17c2.39,0,4.33,1.94,4.33,4.33c0,0.6-0.04,1.12-0.22,1.89
				c-0.34,1.39-1.21,3.37-1.5,4.03h-5.21c-0.3-0.66-1.16-2.64-1.5-4.03c-0.18-0.77-0.22-1.29-0.22-1.89
				C216.27-88.22,218.21-90.17,220.6-90.17z"/>
			<path id="XMLID_5573_" class="st0" d="M215.25-94.74c-0.07-0.09-0.18-0.15-0.3-0.17c-0.12-0.01-0.24,0.02-0.33,0.09
				c-0.09,0.07-0.15,0.18-0.17,0.3c-0.01,0.12,0.02,0.24,0.09,0.33l2.3,2.93c0.09,0.11,0.22,0.17,0.35,0.17c0.01,0,0.01,0,0.02,0h0
				c0.1,0,0.19-0.04,0.26-0.1c0.09-0.07,0.15-0.18,0.17-0.3c0.01-0.12-0.02-0.24-0.09-0.33L215.25-94.74z M217.24-91.48
				c-0.01,0.01-0.02,0.01-0.04,0.01c-0.02,0-0.04-0.01-0.05-0.02l-2.3-2.93c-0.01-0.02-0.01-0.03-0.01-0.05
				c0-0.01,0.01-0.03,0.02-0.04c0.01-0.01,0.03-0.01,0.04-0.01c0,0,0.01,0,0.01,0c0.01,0,0.03,0.01,0.04,0.02l2.3,2.93
				c0.01,0.02,0.01,0.04,0.01,0.05C217.26-91.52,217.26-91.5,217.24-91.48z"/>
			<path id="XMLID_5570_" class="st0" d="M223.6-91.19L223.6-91.19c0.07,0.05,0.16,0.08,0.25,0.08c0.01,0,0.01,0,0.02,0
				c0.15,0,0.28-0.08,0.36-0.2l1.9-2.86c0.07-0.1,0.09-0.22,0.07-0.34c-0.02-0.12-0.09-0.22-0.19-0.29s-0.22-0.09-0.34-0.07
				c-0.12,0.02-0.22,0.09-0.29,0.19l-1.9,2.86c-0.07,0.1-0.09,0.22-0.07,0.34C223.43-91.36,223.5-91.26,223.6-91.19z M223.79-91.6
				l1.9-2.86c0.01-0.02,0.03-0.02,0.04-0.03c0.01,0,0.03,0,0.05,0.01c0.02,0.01,0.03,0.03,0.03,0.04c0,0.01,0,0.03-0.01,0.05
				l-1.9,2.86c-0.02,0.02-0.04,0.03-0.05,0.03c-0.01,0-0.03,0-0.04-0.01c-0.02-0.01-0.03-0.03-0.03-0.04
				C223.78-91.56,223.78-91.58,223.79-91.6z"/>
			<path id="XMLID_5567_" class="st0" d="M220.5-91.86c0.01,0,0.01,0,0.02,0c0.01,0,0.01,0,0.02,0c0.23-0.01,0.42-0.2,0.44-0.43
				l0.16-3.8c0-0.12-0.04-0.24-0.12-0.32c-0.08-0.09-0.19-0.14-0.31-0.15c-0.12,0-0.23,0.04-0.32,0.12
				c-0.09,0.08-0.14,0.19-0.15,0.31l-0.16,3.8c-0.01,0.12,0.04,0.24,0.12,0.32C220.27-91.92,220.38-91.86,220.5-91.86L220.5-91.86z
				 M220.46-92.31l0.16-3.8c0-0.02,0.01-0.04,0.02-0.05c0.01-0.01,0.02-0.02,0.05-0.02c0.02,0,0.04,0.01,0.04,0.02
				c0.01,0.01,0.02,0.02,0.02,0.05l-0.16,3.8c0,0.03-0.03,0.06-0.06,0.06h0c-0.02,0-0.04-0.01-0.04-0.02
				C220.47-92.27,220.46-92.29,220.46-92.31z"/>
			<path id="XMLID_5566_" class="st0" d="M217.86-86.56L217.86-86.56c0.23,0.01,0.44-0.16,0.45-0.39c0.01-0.11,0.02-0.22,0.05-0.32
				c0.18-0.7,0.74-0.97,1.19-1.08c0.21-0.05,0.36-0.06,0.38-0.06c0.23-0.01,0.42-0.2,0.41-0.43c0-0.23-0.19-0.42-0.43-0.42
				c-0.79,0.02-2.33,0.51-2.44,2.25C217.45-86.78,217.63-86.57,217.86-86.56z"/>
		</g>
	</g>
</g>
</svg>
