<?xml version="1.0" encoding="utf-8"?>
<!-- Generator: Adobe Illustrator 24.2.3, SVG Export Plug-In . SVG Version: 6.00 Build 0)  -->
<svg version="1.1" id="Camada_1" xmlns="http://www.w3.org/2000/svg" xmlns:xlink="http://www.w3.org/1999/xlink" x="0px" y="0px"
	 viewBox="0 0 100 100" style="enable-background:new 0 0 100 100;" xml:space="preserve">
<style type="text/css">
	.st0{fill:#FFFFFF;}
</style>
<g>
	<g>
		<g>
			<path class="st0" d="M81.9,154.9H16.1c-0.3,0-0.6-0.3-0.6-0.6v-39.6c0-2.1,1.7-3.8,3.8-3.8h59.6c2.1,0,3.8,1.7,3.8,3.8v39.6
				C82.6,154.7,82.3,154.9,81.9,154.9z M16.7,153.7h64.6v-38.9c0-1.4-1.1-2.5-2.5-2.5H19.2c-1.4,0-2.5,1.1-2.5,2.5
				C16.7,114.8,16.7,153.7,16.7,153.7z"/>
		</g>
		<g>
			<path class="st0" d="M77.9,150.9H20.1c-0.3,0-0.6-0.3-0.6-0.6v-34.6c0-0.3,0.3-0.6,0.6-0.6h57.8c0.3,0,0.6,0.3,0.6,0.6v34.6
				C78.5,150.6,78.2,150.9,77.9,150.9z M20.7,149.7h56.5v-33.4H20.7V149.7z"/>
		</g>
		<g>
			<path class="st0" d="M81.9,161H16.1c-2.5,0-4.6-1.6-4.6-3.6v-3c0-0.3,0.3-0.6,0.6-0.6h73.8c0.3,0,0.6,0.3,0.6,0.6v3
				C86.5,159.4,84.5,161,81.9,161z M12.7,154.9v2.4c0,1.3,1.5,2.4,3.4,2.4h65.9c1.8,0,3.4-1.1,3.4-2.4v-2.4H12.7z"/>
		</g>
		<g>
			<path class="st0" d="M49,159.3c-1.1,0-1.9-0.9-1.9-1.9s0.9-1.9,1.9-1.9s1.9,0.9,1.9,1.9C50.9,158.4,50.1,159.3,49,159.3z
				 M49,156.6c-0.4,0-0.7,0.3-0.7,0.7c0,0.4,0.3,0.7,0.7,0.7c0.4,0,0.7-0.3,0.7-0.7C49.7,157,49.4,156.6,49,156.6z"/>
		</g>
		<g>
			<path class="st0" d="M40,144.6h-3.8c-0.3,0-0.6-0.3-0.6-0.6v-9c0-0.3,0.3-0.6,0.6-0.6H40c0.3,0,0.6,0.3,0.6,0.6v9
				C40.6,144.3,40.4,144.6,40,144.6z M36.8,143.4h2.6v-7.8h-2.6V143.4z"/>
		</g>
		<g>
			<path class="st0" d="M47.3,144.6h-3.8c-0.3,0-0.6-0.3-0.6-0.6v-11.6c0-0.3,0.3-0.6,0.6-0.6h3.8c0.3,0,0.6,0.3,0.6,0.6V144
				C47.9,144.3,47.6,144.6,47.3,144.6z M44.1,143.4h2.5V133h-2.5V143.4z"/>
		</g>
		<g>
			<path class="st0" d="M54.5,144.6h-3.8c-0.3,0-0.6-0.3-0.6-0.6v-13.6c0-0.3,0.3-0.6,0.6-0.6h3.8c0.3,0,0.6,0.3,0.6,0.6V144
				C55.1,144.3,54.9,144.6,54.5,144.6z M51.3,143.4h2.6v-12.4h-2.6V143.4z"/>
		</g>
		<g>
			<path class="st0" d="M61.8,144.6H58c-0.3,0-0.6-0.3-0.6-0.6v-17.1c0-0.3,0.3-0.6,0.6-0.6h3.8c0.3,0,0.6,0.3,0.6,0.6V144
				C62.4,144.3,62.1,144.6,61.8,144.6z M58.6,143.4h2.5v-15.9h-2.5V143.4z"/>
		</g>
		<g>
			<path class="st0" d="M62.3,147.4H34.8c-0.3,0-0.6-0.3-0.6-0.6s0.3-0.6,0.6-0.6h27.4c0.3,0,0.6,0.3,0.6,0.6
				C62.9,147.1,62.6,147.4,62.3,147.4z"/>
		</g>
	</g>
</g>
<g>
	<g>
		<g>
			<path class="st0" d="M68,77H28.7c-2,0-3.7-1.7-3.7-3.7V27.3c0-2.4,1.9-4.3,4.3-4.3H68c0.3,0,0.5,0.2,0.5,0.5v11.6
				c0,0.1,0,0.3-0.1,0.3L56.5,47.7l-0.4,7.1l6.7-1.1l4.8-5c0.1-0.2,0.4-0.2,0.5-0.1c0.2,0.1,0.3,0.3,0.3,0.5v27.3
				C68.5,76.8,68.3,77,68,77z M29.3,24c-1.8,0-3.3,1.5-3.3,3.3v46.1c0,1.5,1.2,2.7,2.7,2.7h38.8V50.4l-4.1,4.2
				c-0.1,0.1-0.2,0.1-0.3,0.2L55.6,56c-0.2,0-0.3,0-0.4-0.1c-0.1-0.1-0.2-0.3-0.2-0.4l0.5-7.9c0-0.1,0.1-0.2,0.1-0.3l11.8-12.3V24
				H29.3z"/>
		</g>
		<g>
			<path class="st0" d="M33.7,76.8c-0.3,0-0.5-0.2-0.5-0.5V23.6c0-0.3,0.2-0.5,0.5-0.5c0.3,0,0.5,0.2,0.5,0.5v52.7
				C34.2,76.6,34,76.8,33.7,76.8z"/>
		</g>
		<g>
			<path class="st0" d="M29.6,34.5c-1.2,0-2.2-1-2.2-2.2c0-1.2,1-2.2,2.2-2.2s2.2,1,2.2,2.2C31.8,33.5,30.8,34.5,29.6,34.5z
				 M29.6,31c-0.7,0-1.2,0.5-1.2,1.2s0.6,1.2,1.2,1.2s1.2-0.5,1.2-1.2C30.8,31.5,30.3,31,29.6,31z"/>
		</g>
		<g>
			<path class="st0" d="M29.6,43.3c-1.2,0-2.2-1-2.2-2.2s1-2.2,2.2-2.2s2.2,1,2.2,2.2C31.8,42.3,30.8,43.3,29.6,43.3z M29.6,39.9
				c-0.7,0-1.2,0.5-1.2,1.2s0.6,1.2,1.2,1.2s1.2-0.5,1.2-1.2C30.8,40.4,30.3,39.9,29.6,39.9z"/>
		</g>
		<g>
			<path class="st0" d="M29.6,52.2c-1.2,0-2.2-1-2.2-2.2s1-2.2,2.2-2.2s2.2,1,2.2,2.2C31.8,51.2,30.8,52.2,29.6,52.2z M29.6,48.8
				c-0.7,0-1.2,0.5-1.2,1.2s0.6,1.2,1.2,1.2s1.2-0.5,1.2-1.2C30.8,49.3,30.3,48.8,29.6,48.8z"/>
		</g>
		<g>
			<path class="st0" d="M29.6,61.1c-1.2,0-2.2-1-2.2-2.2s1-2.2,2.2-2.2s2.2,1,2.2,2.2C31.8,60.1,30.8,61.1,29.6,61.1z M29.6,57.7
				c-0.7,0-1.2,0.5-1.2,1.2c0,0.7,0.6,1.2,1.2,1.2c0.7,0,1.2-0.5,1.2-1.2C30.8,58.2,30.3,57.7,29.6,57.7z"/>
		</g>
		<g>
			<path class="st0" d="M29.6,70c-1.2,0-2.2-1-2.2-2.2s1-2.2,2.2-2.2s2.2,1,2.2,2.2C31.8,69,30.8,70,29.6,70z M29.6,66.5
				c-0.7,0-1.2,0.6-1.2,1.2s0.6,1.2,1.2,1.2s1.2-0.6,1.2-1.2C30.8,67.1,30.3,66.5,29.6,66.5z"/>
		</g>
		<g>
			<path class="st0" d="M52.8,34.1h-12c-0.3,0-0.5-0.2-0.5-0.5c0-0.3,0.2-0.5,0.5-0.5h12c0.3,0,0.5,0.2,0.5,0.5
				C53.3,33.8,53.1,34.1,52.8,34.1z"/>
		</g>
		<g>
			<path class="st0" d="M52.8,45h-12c-0.3,0-0.5-0.2-0.5-0.5c0-0.3,0.2-0.5,0.5-0.5h12c0.3,0,0.5,0.2,0.5,0.5
				C53.3,44.8,53.1,45,52.8,45z"/>
		</g>
		<g>
			<path class="st0" d="M55.5,56H40.8c-0.3,0-0.5-0.2-0.5-0.5c0-0.3,0.2-0.5,0.5-0.5h14.8c0.3,0,0.5,0.2,0.5,0.5
				C56,55.8,55.8,56,55.5,56z"/>
		</g>
		<g>
			<path class="st0" d="M62.4,66.9H40.8c-0.3,0-0.5-0.2-0.5-0.5s0.2-0.5,0.5-0.5h21.6c0.3,0,0.5,0.2,0.5,0.5S62.7,66.9,62.4,66.9z"
				/>
		</g>
		<g>
			<path class="st0" d="M55.6,56c-0.1,0-0.2,0-0.3-0.1c-0.1-0.1-0.2-0.3-0.2-0.4l0.5-7.9c0-0.1,0.1-0.2,0.1-0.3l22-22.9
				c0.6-0.6,1.4-1,2.3-1c0.8,0,1.6,0.3,2.2,0.9l3.3,3.1c1.2,1.2,1.3,3.2,0.1,4.4l-22,22.9c-0.1,0.1-0.2,0.1-0.3,0.2L55.6,56
				C55.6,56,55.6,56,55.6,56z M56.5,47.8l-0.4,7.1l6.7-1.1L84.7,31c0.8-0.8,0.8-2.2-0.1-3l-3.3-3.1c-0.8-0.8-2.2-0.8-3,0.1
				L56.5,47.8z"/>
		</g>
		<g>
			<path class="st0" d="M83.2,33.9c-0.1,0-0.3,0-0.3-0.1L75.8,27c-0.2-0.2-0.2-0.5,0-0.7c0.2-0.2,0.5-0.2,0.7,0l7,6.8
				c0.2,0.2,0.2,0.5,0,0.7C83.4,33.8,83.3,33.9,83.2,33.9z"/>
		</g>
		<g>
			<path class="st0" d="M63.1,54.8c-0.1,0-0.3,0-0.3-0.1l-7-6.8c-0.2-0.2-0.2-0.5,0-0.7c0.2-0.2,0.5-0.2,0.7,0l7,6.8
				c0.2,0.2,0.2,0.5,0,0.7C63.4,54.8,63.2,54.8,63.1,54.8z"/>
		</g>
		<g>
			<path class="st0" d="M59.6,51.4c-0.1,0-0.3,0-0.3-0.1c-0.2-0.2-0.2-0.5,0-0.7l20.1-20.9c0.2-0.2,0.5-0.2,0.7,0
				c0.2,0.2,0.2,0.5,0,0.7L59.9,51.3C59.8,51.4,59.7,51.4,59.6,51.4z"/>
		</g>
	</g>
</g>
<g>
	<g>
		<g>
			<path class="st0" d="M22-20.2c0,0-0.1,0-0.1,0c-0.2-0.1-0.4-0.3-0.4-0.5L20-32.4h-1.7c-2.4,0-4.4-2-4.4-4.3v-31.1
				c0-2.4,1.9-4.3,4.4-4.3h44c2.4,0,4.3,1.9,4.3,4.3v31.1c0,2.4-1.9,4.3-4.3,4.3H31.6l-9.1,12C22.3-20.3,22.2-20.2,22-20.2z
				 M18.3-71.1c-1.8,0-3.2,1.4-3.2,3.2v31.1c0,1.8,1.5,3.2,3.2,3.2h2.2c0.3,0,0.5,0.2,0.6,0.5l1.3,10.9l8.5-11.1
				c0.1-0.1,0.3-0.2,0.5-0.2h31.1c1.8,0,3.2-1.5,3.2-3.2v-31.1c0-1.8-1.4-3.2-3.2-3.2H18.3z"/>
		</g>
		<g>
			<path class="st0" d="M74-9.7c-0.2,0-0.3-0.1-0.4-0.2l-9.1-12H33.7c-2.4,0-4.4-2-4.4-4.4v-4.8c0-0.1,0-0.2,0.1-0.3l1.4-1.9
				c0.1-0.1,0.3-0.2,0.5-0.2h31.1c1.8,0,3.2-1.5,3.2-3.2v-24.5c0-0.3,0.3-0.6,0.6-0.6h11.5c2.4,0,4.3,2,4.3,4.3v31.1
				c0,2.4-1.9,4.4-4.3,4.4H76l-1.4,11.8c0,0.2-0.2,0.4-0.4,0.5C74.1-9.8,74.1-9.7,74-9.7z M30.4-30.9v4.6c0,1.8,1.5,3.2,3.2,3.2
				h31.1c0.2,0,0.3,0.1,0.4,0.2l8.5,11.1l1.3-10.9c0-0.3,0.3-0.5,0.6-0.5h2.2c1.8,0,3.2-1.5,3.2-3.2v-31.1c0-1.8-1.4-3.2-3.2-3.2
				h-11v23.9c0,2.4-1.9,4.3-4.3,4.3H31.6L30.4-30.9z"/>
		</g>
		<g>
			<path class="st0" d="M59.5-59.7H21.1c-0.3,0-0.6-0.3-0.6-0.6s0.3-0.6,0.6-0.6h38.4c0.3,0,0.6,0.3,0.6,0.6
				C60.1-60,59.9-59.7,59.5-59.7z"/>
		</g>
		<g>
			<path class="st0" d="M59.5-52.7H21.1c-0.3,0-0.6-0.3-0.6-0.6s0.3-0.6,0.6-0.6h38.4c0.3,0,0.6,0.3,0.6,0.6
				C60.1-52.9,59.9-52.7,59.5-52.7z"/>
		</g>
		<g>
			<path class="st0" d="M59.5-45.7H21.1c-0.3,0-0.6-0.3-0.6-0.6s0.3-0.6,0.6-0.6h38.4c0.3,0,0.6,0.3,0.6,0.6
				C60.1-45.9,59.9-45.7,59.5-45.7z"/>
		</g>
	</g>
</g>
<g>
	<g>
		<g>
			<path class="st0" d="M183,70.8H121c-1.6,0-2.9-1.3-2.9-2.9V26.1c0-1.6,1.3-3,2.9-3H183c1.6,0,2.9,1.3,2.9,3v41.8
				C185.9,69.5,184.6,70.8,183,70.8z M121,24.3c-1,0-1.8,0.8-1.8,1.8v41.8c0,1,0.8,1.8,1.8,1.8H183c1,0,1.8-0.8,1.8-1.8V26.1
				c0-1-0.8-1.8-1.8-1.8H121z"/>
		</g>
		<g>
			<path class="st0" d="M185.4,32.8h-66.7c-0.3,0-0.6-0.3-0.6-0.6c0-0.3,0.3-0.6,0.6-0.6h66.7c0.3,0,0.6,0.3,0.6,0.6
				C185.9,32.6,185.7,32.8,185.4,32.8z"/>
		</g>
		<g>
			<path class="st0" d="M125,30.3h-3.5c-0.3,0-0.6-0.3-0.6-0.6v-3.5c0-0.3,0.3-0.6,0.6-0.6h3.5c0.3,0,0.6,0.3,0.6,0.6v3.5
				C125.5,30.1,125.3,30.3,125,30.3z M122,29.2h2.4v-2.4H122V29.2z"/>
		</g>
		<g>
			<path class="st0" d="M131.9,30.3h-3.5c-0.3,0-0.6-0.3-0.6-0.6v-3.5c0-0.3,0.3-0.6,0.6-0.6h3.5c0.3,0,0.6,0.3,0.6,0.6v3.5
				C132.4,30.1,132.1,30.3,131.9,30.3z M128.9,29.2h2.4v-2.4h-2.4V29.2z"/>
		</g>
		<g>
			<path class="st0" d="M138.7,30.3h-3.5c-0.3,0-0.6-0.3-0.6-0.6v-3.5c0-0.3,0.3-0.6,0.6-0.6h3.5c0.3,0,0.6,0.3,0.6,0.6v3.5
				C139.3,30.1,139,30.3,138.7,30.3z M135.7,29.2h2.4v-2.4h-2.4V29.2z"/>
		</g>
		<g>
			<path class="st0" d="M140.8,63.1c-0.1,0-0.3,0-0.4-0.1l-14-11.6c-0.1-0.1-0.2-0.3-0.2-0.4c0-0.2,0.1-0.3,0.2-0.4l13.2-11
				c0.2-0.2,0.6-0.2,0.8,0.1c0.2,0.2,0.2,0.6-0.1,0.8l-12.7,10.6l13.5,11.2c0.2,0.2,0.3,0.5,0.1,0.8C141.1,63.1,141,63.1,140.8,63.1
				z"/>
		</g>
		<g>
			<path class="st0" d="M163.2,63.1c-0.2,0-0.3-0.1-0.4-0.2c-0.2-0.2-0.2-0.6,0.1-0.8l13.5-11.2l-12.7-10.6
				c-0.2-0.2-0.3-0.5-0.1-0.8s0.6-0.3,0.8-0.1l13.2,11c0.1,0.1,0.2,0.3,0.2,0.4c0,0.2-0.1,0.3-0.2,0.4l-14,11.6
				C163.4,63.1,163.3,63.1,163.2,63.1z"/>
		</g>
		<g id="XMLID_5565_">
			<path id="XMLID_5576_" class="st0" d="M147.5,50.2c0,0.7,0,1.2,0.2,2.1c0.4,1.5,1.2,3.5,1.6,4.2c-0.1,0.2-0.2,0.4-0.2,0.6
				c0,0.3,0.1,0.5,0.3,0.8c-0.2,0.2-0.3,0.5-0.3,0.7c0,0.3,0.1,0.6,0.4,0.8c-0.2,0.2-0.3,0.4-0.3,0.7c0,0.7,0.6,1.2,1.3,1.2l4.6,0.1
				c0,0,0,0,0,0c0.4,0,0.7-0.1,0.9-0.4c0.2-0.2,0.4-0.5,0.4-0.8c0-0.3-0.1-0.6-0.4-0.8c0.2-0.2,0.3-0.4,0.3-0.7
				c0-0.3-0.1-0.5-0.3-0.8c0.2-0.2,0.3-0.5,0.3-0.7c0-0.3-0.1-0.5-0.3-0.8c0.3-0.7,1.2-2.7,1.5-4.1c0.2-0.8,0.2-1.4,0.2-2.1
				c0-2.8-2.3-5.1-5.1-5.1C149.8,45.1,147.5,47.3,147.5,50.2z M155.4,60.4c-0.1,0.1-0.2,0.2-0.4,0.2l-4.6-0.1
				c-0.3,0-0.5-0.2-0.5-0.4c0-0.2,0.1-0.3,0.4-0.4c0.2,0,0.3-0.2,0.3-0.4c0-0.2-0.1-0.3-0.3-0.4c-0.2,0-0.4-0.2-0.4-0.4
				c0-0.2,0.1-0.3,0.3-0.4c0.2,0,0.3-0.2,0.3-0.4s-0.1-0.3-0.3-0.4c-0.2-0.1-0.3-0.2-0.3-0.4c0-0.1,0-0.1,0.1-0.2h5.4
				c0.1,0.1,0.1,0.2,0.1,0.3c0,0.2-0.1,0.3-0.3,0.4c-0.2,0-0.3,0.2-0.3,0.4s0.1,0.3,0.3,0.4c0.2,0.1,0.3,0.2,0.3,0.4
				s-0.1,0.3-0.4,0.4c-0.2,0-0.3,0.2-0.3,0.4c0,0.2,0.1,0.3,0.3,0.4c0.2,0,0.4,0.2,0.4,0.4C155.5,60.3,155.5,60.4,155.4,60.4z
				 M152.6,45.8c2.4,0,4.3,1.9,4.3,4.3c0,0.6,0,1.1-0.2,1.9c-0.3,1.4-1.2,3.4-1.5,4H150c-0.3-0.7-1.2-2.6-1.5-4
				c-0.2-0.8-0.2-1.3-0.2-1.9C148.3,47.8,150.2,45.8,152.6,45.8z"/>
			<path id="XMLID_5573_" class="st0" d="M147.3,41.3c-0.1-0.1-0.2-0.2-0.3-0.2c-0.1,0-0.2,0-0.3,0.1s-0.1,0.2-0.2,0.3
				c0,0.1,0,0.2,0.1,0.3l2.3,2.9c0.1,0.1,0.2,0.2,0.4,0.2c0,0,0,0,0,0l0,0c0.1,0,0.2,0,0.3-0.1c0.1-0.1,0.1-0.2,0.2-0.3
				c0-0.1,0-0.2-0.1-0.3L147.3,41.3z M149.2,44.5C149.2,44.5,149.2,44.5,149.2,44.5C149.2,44.5,149.2,44.5,149.2,44.5l-2.4-2.9
				c0,0,0,0,0,0c0,0,0,0,0,0c0,0,0,0,0,0h0c0,0,0,0,0,0L149.2,44.5C149.3,44.5,149.3,44.5,149.2,44.5
				C149.3,44.5,149.3,44.5,149.2,44.5z"/>
			<path id="XMLID_5570_" class="st0" d="M155.6,44.8L155.6,44.8c0.1,0,0.2,0.1,0.3,0.1c0,0,0,0,0,0c0.1,0,0.3-0.1,0.4-0.2l1.9-2.9
				c0.1-0.1,0.1-0.2,0.1-0.3c0-0.1-0.1-0.2-0.2-0.3s-0.2-0.1-0.3-0.1s-0.2,0.1-0.3,0.2l-1.9,2.9c-0.1,0.1-0.1,0.2-0.1,0.3
				C155.4,44.6,155.5,44.7,155.6,44.8z M155.8,44.4l1.9-2.9c0,0,0,0,0,0c0,0,0,0,0.1,0s0,0,0,0c0,0,0,0,0,0l-1.9,2.9
				C155.9,44.5,155.9,44.5,155.8,44.4C155.8,44.5,155.8,44.5,155.8,44.4C155.8,44.5,155.8,44.5,155.8,44.4
				C155.8,44.4,155.8,44.4,155.8,44.4z"/>
			<path id="XMLID_5567_" class="st0" d="M152.5,44.1C152.5,44.1,152.5,44.1,152.5,44.1C152.5,44.1,152.5,44.1,152.5,44.1
				c0.3,0,0.5-0.2,0.5-0.4l0.2-3.8c0-0.1,0-0.2-0.1-0.3c-0.1-0.1-0.2-0.1-0.3-0.2c-0.1,0-0.2,0-0.3,0.1c-0.1,0.1-0.1,0.2-0.1,0.3
				l-0.2,3.8c0,0.1,0,0.2,0.1,0.3C152.3,44.1,152.4,44.1,152.5,44.1L152.5,44.1z M152.5,43.7l0.2-3.8c0,0,0,0,0,0c0,0,0,0,0.1,0
				c0,0,0,0,0,0c0,0,0,0,0,0l-0.2,3.8C152.6,43.7,152.6,43.8,152.5,43.7L152.5,43.7C152.5,43.8,152.5,43.7,152.5,43.7
				C152.5,43.7,152.5,43.7,152.5,43.7z"/>
			<path id="XMLID_5566_" class="st0" d="M149.9,49.4L149.9,49.4c0.2,0,0.4-0.2,0.4-0.4c0-0.1,0-0.2,0.1-0.3c0.2-0.7,0.7-1,1.2-1.1
				c0.2,0,0.4-0.1,0.4-0.1c0.2,0,0.4-0.2,0.4-0.4c0-0.2-0.2-0.4-0.4-0.4c-0.8,0-2.3,0.5-2.4,2.3C149.4,49.2,149.6,49.4,149.9,49.4z"
				/>
		</g>
	</g>
</g>
</svg>
