<?xml version="1.0" encoding="utf-8"?>
<!-- Generator: Adobe Illustrator 24.2.3, SVG Export Plug-In . SVG Version: 6.00 Build 0)  -->
<svg version="1.1" id="Camada_1" xmlns="http://www.w3.org/2000/svg" xmlns:xlink="http://www.w3.org/1999/xlink" x="0px" y="0px"
	 viewBox="0 0 100 100" style="enable-background:new 0 0 100 100;" xml:space="preserve">
<style type="text/css">
	.st0{fill:#FFFFFF;}
</style>
<g>
	<g>
		<g>
			<path class="st0" d="M251.93,70.95h-65.87c-0.34,0-0.62-0.28-0.62-0.62V30.77c0-2.08,1.69-3.77,3.77-3.77h59.57
				c2.08,0,3.77,1.69,3.77,3.77v39.56C252.55,70.67,252.28,70.95,251.93,70.95z M186.68,69.71h64.64V30.77
				c0-1.4-1.14-2.54-2.53-2.54h-59.57c-1.4,0-2.53,1.14-2.53,2.54V69.71z"/>
		</g>
		<g>
			<path class="st0" d="M247.88,66.9h-57.76c-0.34,0-0.62-0.28-0.62-0.62V31.67c0-0.34,0.28-0.62,0.62-0.62h57.76
				c0.34,0,0.62,0.28,0.62,0.62v34.61C248.5,66.62,248.22,66.9,247.88,66.9z M190.74,65.66h56.53V32.29h-56.53V65.66z"/>
		</g>
		<g>
			<path class="st0" d="M251.94,77h-65.88c-2.53,0-4.59-1.64-4.59-3.64v-3.03c0-0.34,0.28-0.62,0.62-0.62h73.83
				c0.34,0,0.62,0.28,0.62,0.62v3.03C256.53,75.36,254.47,77,251.94,77z M182.7,70.95v2.41c0,1.31,1.54,2.41,3.36,2.41h65.88
				c1.82,0,3.36-1.1,3.36-2.41v-2.41H182.7z"/>
		</g>
		<g>
			<path class="st0" d="M219,75.3c-1.07,0-1.94-0.87-1.94-1.94c0-1.07,0.87-1.94,1.94-1.94c1.07,0,1.94,0.87,1.94,1.94
				C220.94,74.42,220.07,75.3,219,75.3z M219,72.65c-0.39,0-0.7,0.32-0.7,0.7c0,0.39,0.32,0.71,0.7,0.71c0.39,0,0.71-0.32,0.71-0.71
				C219.7,72.97,219.39,72.65,219,72.65z"/>
		</g>
		<g>
			<path class="st0" d="M210.02,60.59h-3.79c-0.34,0-0.62-0.28-0.62-0.62v-9.02c0-0.34,0.28-0.62,0.62-0.62h3.79
				c0.34,0,0.62,0.28,0.62,0.62v9.02C210.64,60.31,210.37,60.59,210.02,60.59z M206.85,59.36h2.56v-7.78h-2.56V59.36z"/>
		</g>
		<g>
			<path class="st0" d="M217.27,60.59h-3.79c-0.34,0-0.62-0.28-0.62-0.62V48.35c0-0.34,0.28-0.62,0.62-0.62h3.79
				c0.34,0,0.62,0.28,0.62,0.62v11.63C217.89,60.31,217.61,60.59,217.27,60.59z M214.1,59.36h2.55V48.96h-2.55V59.36z"/>
		</g>
		<g>
			<path class="st0" d="M224.52,60.59h-3.79c-0.34,0-0.62-0.28-0.62-0.62V46.32c0-0.34,0.28-0.62,0.62-0.62h3.79
				c0.34,0,0.62,0.28,0.62,0.62v13.65C225.14,60.31,224.86,60.59,224.52,60.59z M221.35,59.36h2.56V46.94h-2.56V59.36z"/>
		</g>
		<g>
			<path class="st0" d="M231.76,60.59h-3.79c-0.34,0-0.62-0.28-0.62-0.62V42.86c0-0.34,0.28-0.62,0.62-0.62h3.79
				c0.34,0,0.62,0.28,0.62,0.62v17.11C232.38,60.31,232.11,60.59,231.76,60.59z M228.6,59.36h2.55V43.48h-2.55V59.36z"/>
		</g>
		<g>
			<path class="st0" d="M232.25,63.43h-27.43c-0.34,0-0.62-0.28-0.62-0.62s0.28-0.62,0.62-0.62h27.43c0.34,0,0.62,0.28,0.62,0.62
				S232.59,63.43,232.25,63.43z"/>
		</g>
	</g>
</g>
<g>
	<g>
		<g>
			<path class="st0" d="M230.81,77.84h-37.6c-1.93,0-3.51-1.58-3.51-3.51V30.24c0-2.25,1.83-4.08,4.08-4.08h37.03
				c0.27,0,0.48,0.22,0.48,0.48v11.07c0,0.12-0.05,0.24-0.13,0.33l-11.32,11.79l-0.41,6.82l6.44-1.01l4.59-4.78
				c0.14-0.14,0.35-0.19,0.53-0.11c0.18,0.07,0.3,0.25,0.3,0.45v26.14C231.29,77.62,231.07,77.84,230.81,77.84z M193.78,27.13
				c-1.72,0-3.12,1.4-3.12,3.12v44.08c0,1.4,1.14,2.55,2.54,2.55h37.12V52.41l-3.87,4.04c-0.07,0.08-0.17,0.13-0.27,0.14l-7.2,1.13
				c-0.14,0.02-0.29-0.02-0.4-0.12c-0.11-0.1-0.17-0.24-0.16-0.39l0.46-7.6c0.01-0.11,0.05-0.22,0.13-0.3l11.3-11.78v-10.4H193.78z"
				/>
		</g>
		<g>
			<path class="st0" d="M197.96,77.68c-0.27,0-0.48-0.22-0.48-0.48V26.75c0-0.27,0.22-0.48,0.48-0.48c0.27,0,0.48,0.22,0.48,0.48
				V77.2C198.44,77.46,198.22,77.68,197.96,77.68z"/>
		</g>
		<g>
			<path class="st0" d="M194.07,37.14c-1.18,0-2.14-0.96-2.14-2.14c0-1.18,0.96-2.14,2.14-2.14s2.14,0.96,2.14,2.14
				C196.2,36.17,195.24,37.14,194.07,37.14z M194.07,33.82c-0.65,0-1.17,0.53-1.17,1.17c0,0.65,0.53,1.18,1.17,1.18
				s1.17-0.53,1.17-1.18C195.24,34.34,194.71,33.82,194.07,33.82z"/>
		</g>
		<g>
			<path class="st0" d="M194.07,45.63c-1.18,0-2.14-0.96-2.14-2.14c0-1.18,0.96-2.14,2.14-2.14s2.14,0.96,2.14,2.14
				C196.2,44.67,195.24,45.63,194.07,45.63z M194.07,42.32c-0.65,0-1.17,0.53-1.17,1.17c0,0.65,0.53,1.17,1.17,1.17
				s1.17-0.53,1.17-1.17C195.24,42.85,194.71,42.32,194.07,42.32z"/>
		</g>
		<g>
			<path class="st0" d="M194.07,54.14c-1.18,0-2.14-0.96-2.14-2.14c0-1.18,0.96-2.14,2.14-2.14s2.14,0.96,2.14,2.14
				C196.2,53.18,195.24,54.14,194.07,54.14z M194.07,50.83c-0.65,0-1.17,0.53-1.17,1.17c0,0.65,0.53,1.17,1.17,1.17
				s1.17-0.53,1.17-1.17C195.24,51.35,194.71,50.83,194.07,50.83z"/>
		</g>
		<g>
			<path class="st0" d="M194.07,62.63c-1.18,0-2.14-0.96-2.14-2.14c0-1.18,0.96-2.14,2.14-2.14s2.14,0.96,2.14,2.14
				C196.2,61.67,195.24,62.63,194.07,62.63z M194.07,59.32c-0.65,0-1.17,0.53-1.17,1.17c0,0.65,0.53,1.17,1.17,1.17
				c0.66,0,1.17-0.52,1.17-1.17C195.24,59.85,194.71,59.32,194.07,59.32z"/>
		</g>
		<g>
			<path class="st0" d="M194.07,71.14c-1.18,0-2.14-0.96-2.14-2.14c0-1.18,0.96-2.14,2.14-2.14s2.14,0.96,2.14,2.14
				C196.2,70.18,195.24,71.14,194.07,71.14z M194.07,67.83c-0.65,0-1.17,0.53-1.17,1.17c0,0.65,0.53,1.17,1.17,1.17
				s1.17-0.53,1.17-1.17C195.24,68.35,194.71,67.83,194.07,67.83z"/>
		</g>
		<g>
			<path class="st0" d="M216.26,36.76h-11.53c-0.27,0-0.48-0.22-0.48-0.48s0.22-0.48,0.48-0.48h11.53c0.27,0,0.48,0.22,0.48,0.48
				S216.52,36.76,216.26,36.76z"/>
		</g>
		<g>
			<path class="st0" d="M216.26,47.24h-11.53c-0.27,0-0.48-0.22-0.48-0.48c0-0.27,0.22-0.48,0.48-0.48h11.53
				c0.27,0,0.48,0.22,0.48,0.48C216.74,47.02,216.52,47.24,216.26,47.24z"/>
		</g>
		<g>
			<path class="st0" d="M218.88,57.72h-14.16c-0.27,0-0.48-0.22-0.48-0.48c0-0.27,0.22-0.48,0.48-0.48h14.16
				c0.27,0,0.48,0.22,0.48,0.48C219.37,57.51,219.15,57.72,218.88,57.72z"/>
		</g>
		<g>
			<path class="st0" d="M225.44,68.2h-20.71c-0.27,0-0.48-0.22-0.48-0.48c0-0.27,0.22-0.48,0.48-0.48h20.71
				c0.27,0,0.48,0.22,0.48,0.48C225.92,67.98,225.7,68.2,225.44,68.2z"/>
		</g>
		<g>
			<path class="st0" d="M218.91,57.72c-0.12,0-0.23-0.04-0.32-0.13c-0.11-0.1-0.17-0.24-0.16-0.39l0.46-7.6
				c0.01-0.11,0.05-0.22,0.13-0.3l21.02-21.91c0.57-0.59,1.33-0.92,2.16-0.92c0.78,0,1.51,0.3,2.07,0.83l3.12,2.99
				c1.19,1.14,1.23,3.04,0.09,4.23l-21.02,21.91c-0.07,0.08-0.17,0.13-0.27,0.14l-7.2,1.13C218.96,57.72,218.93,57.72,218.91,57.72z
				 M219.84,49.85l-0.41,6.82l6.44-1.01l20.91-21.79c0.77-0.81,0.75-2.09-0.06-2.87l-3.12-2.99c-0.78-0.75-2.12-0.72-2.87,0.06
				L219.84,49.85z"/>
		</g>
		<g>
			<path class="st0" d="M245.33,36.55c-0.12,0-0.24-0.04-0.33-0.13l-6.74-6.47c-0.19-0.18-0.2-0.49-0.02-0.68
				c0.19-0.19,0.49-0.2,0.68-0.02l6.75,6.47c0.19,0.18,0.2,0.49,0.01,0.68C245.58,36.5,245.46,36.55,245.33,36.55z"/>
		</g>
		<g>
			<path class="st0" d="M226.1,56.59c-0.12,0-0.24-0.04-0.33-0.13l-6.74-6.47c-0.19-0.18-0.2-0.49-0.01-0.68
				c0.19-0.19,0.49-0.2,0.68-0.01l6.74,6.47c0.19,0.18,0.2,0.49,0.01,0.68C226.36,56.54,226.23,56.59,226.1,56.59z"/>
		</g>
		<g>
			<path class="st0" d="M222.74,53.35c-0.12,0-0.24-0.04-0.33-0.13c-0.19-0.18-0.2-0.49-0.01-0.68l19.22-20.03
				c0.18-0.19,0.49-0.2,0.68-0.01c0.19,0.18,0.2,0.49,0.01,0.68L223.08,53.2C222.99,53.3,222.86,53.35,222.74,53.35z"/>
		</g>
	</g>
</g>
<g>
	<g>
		<g>
			<path class="st0" d="M23.99,70.82c-0.05,0-0.1-0.01-0.15-0.02c-0.22-0.06-0.38-0.25-0.41-0.47L22,58.57h-1.67
				c-2.4,0-4.36-1.95-4.36-4.35V23.09c0-2.4,1.95-4.35,4.36-4.35h44.03c2.4,0,4.35,1.95,4.35,4.35v31.13c0,2.4-1.95,4.35-4.35,4.35
				H33.57L24.43,70.6C24.32,70.74,24.16,70.82,23.99,70.82z M20.33,19.86c-1.79,0-3.24,1.45-3.24,3.23v31.13
				c0,1.78,1.45,3.23,3.24,3.23h2.17c0.28,0,0.52,0.21,0.56,0.49l1.33,10.88l8.47-11.15c0.11-0.14,0.27-0.22,0.45-0.22h31.06
				c1.78,0,3.23-1.45,3.23-3.23V23.09c0-1.78-1.45-3.23-3.23-3.23H20.33z"/>
		</g>
		<g>
			<path class="st0" d="M76.01,81.26c-0.17,0-0.34-0.08-0.45-0.22l-9.13-12.02H35.65c-2.4,0-4.35-1.95-4.35-4.35v-4.76
				c0-0.12,0.04-0.24,0.11-0.34l1.44-1.89c0.11-0.14,0.27-0.22,0.45-0.22h31.06c1.78,0,3.23-1.45,3.23-3.23V29.74
				c0-0.31,0.25-0.56,0.56-0.56h11.53c2.4,0,4.35,1.95,4.35,4.35v31.13c0,2.4-1.95,4.35-4.35,4.35H78l-1.43,11.75
				c-0.03,0.23-0.19,0.41-0.41,0.47C76.11,81.25,76.06,81.26,76.01,81.26z M32.41,60.09v4.57c0,1.78,1.45,3.23,3.23,3.23h31.07
				c0.17,0,0.34,0.08,0.45,0.22l8.46,11.14l1.33-10.87c0.03-0.28,0.27-0.49,0.56-0.49h2.17c1.78,0,3.23-1.45,3.23-3.23V33.53
				c0-1.78-1.45-3.23-3.23-3.23H68.71v23.92c0,2.4-1.95,4.35-4.35,4.35H33.57L32.41,60.09z"/>
		</g>
		<g>
			<path class="st0" d="M61.55,31.3H23.12c-0.31,0-0.56-0.25-0.56-0.56s0.25-0.56,0.56-0.56h38.43c0.31,0,0.56,0.25,0.56,0.56
				S61.86,31.3,61.55,31.3z"/>
		</g>
		<g>
			<path class="st0" d="M61.55,38.32H23.12c-0.31,0-0.56-0.25-0.56-0.56c0-0.31,0.25-0.56,0.56-0.56h38.43
				c0.31,0,0.56,0.25,0.56,0.56C62.11,38.07,61.86,38.32,61.55,38.32z"/>
		</g>
		<g>
			<path class="st0" d="M61.55,45.34H23.12c-0.31,0-0.56-0.25-0.56-0.56c0-0.31,0.25-0.56,0.56-0.56h38.43
				c0.31,0,0.56,0.25,0.56,0.56C62.11,45.09,61.86,45.34,61.55,45.34z"/>
		</g>
	</g>
</g>
<g>
	<g>
		<g>
			<path class="st0" d="M249.96,75.84h-61.93c-1.62,0-2.94-1.33-2.94-2.95V31.12c0-1.63,1.32-2.95,2.94-2.95h61.93
				c1.63,0,2.95,1.33,2.95,2.95v41.76C252.91,74.51,251.59,75.84,249.96,75.84z M188.03,29.28c-1.01,0-1.83,0.82-1.83,1.84v41.76
				c0,1.01,0.82,1.84,1.83,1.84h61.93c1.01,0,1.83-0.82,1.83-1.84V31.12c0-1.01-0.82-1.84-1.83-1.84H188.03z"/>
		</g>
		<g>
			<path class="st0" d="M252.35,37.81h-66.71c-0.31,0-0.56-0.25-0.56-0.56s0.25-0.56,0.56-0.56h66.71c0.31,0,0.56,0.25,0.56,0.56
				S252.66,37.81,252.35,37.81z"/>
		</g>
		<g>
			<path class="st0" d="M191.98,35.31h-3.53c-0.31,0-0.56-0.25-0.56-0.56v-3.53c0-0.31,0.25-0.56,0.56-0.56h3.53
				c0.31,0,0.56,0.25,0.56,0.56v3.53C192.54,35.06,192.29,35.31,191.98,35.31z M189.01,34.19h2.42v-2.42h-2.42V34.19z"/>
		</g>
		<g>
			<path class="st0" d="M198.85,35.31h-3.53c-0.31,0-0.56-0.25-0.56-0.56v-3.53c0-0.31,0.25-0.56,0.56-0.56h3.53
				c0.31,0,0.56,0.25,0.56,0.56v3.53C199.4,35.06,199.15,35.31,198.85,35.31z M195.88,34.19h2.41v-2.42h-2.41V34.19z"/>
		</g>
		<g>
			<path class="st0" d="M205.71,35.31h-3.53c-0.31,0-0.56-0.25-0.56-0.56v-3.53c0-0.31,0.25-0.56,0.56-0.56h3.53
				c0.31,0,0.56,0.25,0.56,0.56v3.53C206.27,35.06,206.02,35.31,205.71,35.31z M202.74,34.19h2.41v-2.42h-2.41V34.19z"/>
		</g>
		<g>
			<path class="st0" d="M207.81,68.14c-0.13,0-0.25-0.04-0.36-0.13l-13.99-11.63c-0.13-0.11-0.2-0.26-0.2-0.43
				c0-0.17,0.07-0.32,0.2-0.43l13.24-11.01c0.24-0.2,0.59-0.16,0.79,0.07c0.2,0.24,0.16,0.59-0.07,0.79l-12.72,10.58l13.48,11.2
				c0.24,0.2,0.27,0.55,0.07,0.79C208.13,68.07,207.97,68.14,207.81,68.14z"/>
		</g>
		<g>
			<path class="st0" d="M230.18,68.14c-0.16,0-0.32-0.07-0.43-0.2c-0.2-0.24-0.16-0.59,0.07-0.79l13.47-11.2l-12.72-10.58
				c-0.24-0.2-0.27-0.55-0.07-0.79c0.2-0.24,0.55-0.27,0.79-0.07l13.24,11.01c0.13,0.11,0.2,0.26,0.2,0.43
				c0,0.17-0.07,0.32-0.2,0.43l-13.98,11.63C230.44,68.1,230.31,68.14,230.18,68.14z"/>
		</g>
		<g id="XMLID_5565_">
			<path id="XMLID_5576_" class="st0" d="M214.49,55.16c0,0.65,0.04,1.23,0.24,2.07c0.36,1.47,1.24,3.48,1.55,4.16
				c-0.13,0.19-0.2,0.41-0.21,0.63c0,0.29,0.1,0.55,0.29,0.76c-0.18,0.2-0.29,0.46-0.29,0.74c0,0.32,0.13,0.62,0.36,0.84
				c-0.16,0.2-0.26,0.44-0.26,0.71c-0.01,0.65,0.56,1.19,1.27,1.2l4.58,0.06c0.01,0,0.01,0,0.02,0c0.35,0,0.69-0.13,0.93-0.37
				c0.22-0.22,0.35-0.5,0.35-0.8c0-0.32-0.13-0.62-0.36-0.84c0.16-0.2,0.26-0.44,0.26-0.71c0-0.28-0.1-0.55-0.29-0.76
				c0.18-0.2,0.29-0.46,0.29-0.74c0-0.29-0.11-0.55-0.29-0.76c0.32-0.71,1.18-2.68,1.53-4.13c0.2-0.84,0.24-1.42,0.24-2.07
				c0-2.81-2.29-5.1-5.1-5.1C216.78,50.06,214.49,52.35,214.49,55.16z M222.43,65.41c-0.1,0.1-0.24,0.16-0.39,0.15l-4.58-0.06
				c-0.28,0-0.51-0.19-0.5-0.42c0-0.17,0.14-0.33,0.35-0.38c0.18-0.05,0.3-0.21,0.29-0.39c-0.01-0.18-0.14-0.33-0.32-0.36
				c-0.24-0.04-0.41-0.22-0.41-0.41c0-0.16,0.13-0.32,0.32-0.38c0.16-0.05,0.27-0.2,0.27-0.37c0-0.17-0.11-0.32-0.27-0.37
				c-0.2-0.06-0.33-0.22-0.33-0.39c0-0.07,0.03-0.13,0.06-0.18h5.42c0.07,0.07,0.11,0.16,0.11,0.26c0,0.16-0.13,0.32-0.32,0.37
				c-0.16,0.05-0.27,0.2-0.27,0.37c0,0.17,0.11,0.32,0.27,0.37c0.2,0.06,0.33,0.22,0.33,0.39c0,0.17-0.14,0.33-0.35,0.38
				c-0.18,0.05-0.3,0.21-0.29,0.39c0.01,0.18,0.14,0.33,0.32,0.36c0.24,0.04,0.41,0.22,0.41,0.41
				C222.54,65.27,222.48,65.36,222.43,65.41z M219.6,50.83c2.39,0,4.33,1.94,4.33,4.33c0,0.6-0.04,1.12-0.22,1.89
				c-0.34,1.39-1.21,3.37-1.5,4.03h-5.21c-0.3-0.66-1.16-2.64-1.5-4.03c-0.18-0.77-0.22-1.29-0.22-1.89
				C215.27,52.78,217.21,50.83,219.6,50.83z"/>
			<path id="XMLID_5573_" class="st0" d="M214.25,46.26c-0.07-0.09-0.18-0.15-0.3-0.17c-0.12-0.01-0.24,0.02-0.33,0.09
				c-0.09,0.07-0.15,0.18-0.17,0.3c-0.01,0.12,0.02,0.24,0.09,0.33l2.3,2.93c0.09,0.11,0.22,0.17,0.35,0.17c0.01,0,0.01,0,0.02,0h0
				c0.1,0,0.19-0.04,0.26-0.1c0.09-0.07,0.15-0.18,0.17-0.3c0.01-0.12-0.02-0.24-0.09-0.33L214.25,46.26z M216.24,49.52
				c-0.01,0.01-0.02,0.01-0.04,0.01c-0.02,0-0.04-0.01-0.05-0.02l-2.3-2.93c-0.01-0.02-0.01-0.03-0.01-0.05
				c0-0.01,0.01-0.03,0.02-0.04c0.01-0.01,0.03-0.01,0.04-0.01c0,0,0.01,0,0.01,0c0.01,0,0.03,0.01,0.04,0.02l2.3,2.93
				c0.01,0.02,0.01,0.04,0.01,0.05C216.26,49.48,216.26,49.5,216.24,49.52z"/>
			<path id="XMLID_5570_" class="st0" d="M222.6,49.81L222.6,49.81c0.07,0.05,0.16,0.08,0.25,0.08c0.01,0,0.01,0,0.02,0
				c0.15,0,0.28-0.08,0.36-0.2l1.9-2.86c0.07-0.1,0.09-0.22,0.07-0.34c-0.02-0.12-0.09-0.22-0.19-0.29s-0.22-0.09-0.34-0.07
				c-0.12,0.02-0.22,0.09-0.29,0.19l-1.9,2.86c-0.07,0.1-0.09,0.22-0.07,0.34C222.43,49.64,222.5,49.74,222.6,49.81z M222.79,49.4
				l1.9-2.86c0.01-0.02,0.03-0.02,0.04-0.03c0.01,0,0.03,0,0.05,0.01c0.02,0.01,0.03,0.03,0.03,0.04c0,0.01,0,0.03-0.01,0.05
				l-1.9,2.86c-0.02,0.02-0.04,0.03-0.05,0.03c-0.01,0-0.03,0-0.04-0.01c-0.02-0.01-0.03-0.03-0.03-0.04
				C222.78,49.44,222.78,49.42,222.79,49.4z"/>
			<path id="XMLID_5567_" class="st0" d="M219.5,49.14c0.01,0,0.01,0,0.02,0c0.01,0,0.01,0,0.02,0c0.23-0.01,0.42-0.2,0.44-0.43
				l0.16-3.8c0-0.12-0.04-0.24-0.12-0.32c-0.08-0.09-0.19-0.14-0.31-0.15c-0.12,0-0.23,0.04-0.32,0.12
				c-0.09,0.08-0.14,0.19-0.15,0.31l-0.16,3.8c-0.01,0.12,0.04,0.24,0.12,0.32C219.27,49.08,219.38,49.14,219.5,49.14L219.5,49.14z
				 M219.46,48.69l0.16-3.8c0-0.02,0.01-0.04,0.02-0.05c0.01-0.01,0.02-0.02,0.05-0.02c0.02,0,0.04,0.01,0.04,0.02
				c0.01,0.01,0.02,0.02,0.02,0.05l-0.16,3.8c0,0.03-0.03,0.06-0.06,0.06h0c-0.02,0-0.04-0.01-0.04-0.02
				C219.47,48.73,219.46,48.71,219.46,48.69z"/>
			<path id="XMLID_5566_" class="st0" d="M216.86,54.44L216.86,54.44c0.23,0.01,0.44-0.16,0.45-0.39c0.01-0.11,0.02-0.22,0.05-0.32
				c0.18-0.7,0.74-0.97,1.19-1.08c0.21-0.05,0.36-0.06,0.38-0.06c0.23-0.01,0.42-0.2,0.41-0.43c0-0.23-0.19-0.42-0.43-0.42
				c-0.79,0.02-2.33,0.51-2.44,2.25C216.45,54.22,216.63,54.43,216.86,54.44z"/>
		</g>
	</g>
</g>
</svg>
