<?xml version="1.0" encoding="utf-8"?>
<!-- Generator: Adobe Illustrator 22.0.1, SVG Export Plug-In . SVG Version: 6.00 Build 0)  -->
<svg version="1.1" id="Camada_1" xmlns="http://www.w3.org/2000/svg" xmlns:xlink="http://www.w3.org/1999/xlink" x="0px" y="0px"
	 viewBox="0 0 250 250" style="enable-background:new 0 0 250 250;" xml:space="preserve">
<style type="text/css">
	.st0{fill:#FFFFFF;}
</style>
<g>
	<g>
		<path class="st0" d="M236.3,213l-3.2-3.2c-1.3-1.3-3.4-1.3-4.7,0c-1.3,1.3-1.3,3.4,0,4.7l2.8,2.8l-14,14l-23.9-23.9l14-14
			l11.1,11.1c1.3,1.3,3.4,1.3,4.7,0c1.3-1.3,1.3-3.4,0-4.7l-13.5-13.5c0,0,0,0,0,0l-9.4-9.4c0,0,0,0,0,0l-8.3-8.3
			c-1.1-1.1-2.6-1.7-4.2-1.7c-1.6,0-3.1,0.6-4.2,1.7l-0.5,0.5l-11.8-11.9c8.5-10.6,14.6-23.1,17.6-36.8h23.3c1.8,0,3.3-1.5,3.3-3.3
			s-1.5-3.3-3.3-3.3H190c0.3-2.1,0.5-4.2,0.7-6.4h37.3c1.8,0,3.3-1.5,3.3-3.3s-1.5-3.3-3.3-3.3h-37.1c0-2.1-0.1-4.3-0.3-6.4h21.6
			c1.8,0,3.3-1.5,3.3-3.3s-1.5-3.3-3.3-3.3h-22.3c-2.3-15.2-8.5-29.5-18.2-41.8c-1.1-1.4-3.2-1.7-4.7-0.5c-1.4,1.1-1.7,3.2-0.5,4.7
			c11.7,14.7,17.8,32.5,17.8,51.3c0,45.6-37.1,82.8-82.8,82.8s-82.8-37.1-82.8-82.8s37.1-82.8,82.8-82.8c20.6,0,40.4,7.6,55.7,21.5
			c1.4,1.2,3.4,1.1,4.7-0.2c1.2-1.4,1.1-3.4-0.2-4.7c-16.5-15-37.8-23.2-60.1-23.2C52.1,12.1,12,52.2,12,101.5
			c0,43.5,31.3,79.9,72.5,87.8v22.3c0,1.8,1.5,3.3,3.3,3.3s3.3-1.5,3.3-3.3v-21.3c2.1,0.2,4.2,0.4,6.4,0.5v36.4
			c0,1.8,1.5,3.3,3.3,3.3s3.3-1.5,3.3-3.3v-36.4c2.1-0.1,4.3-0.2,6.4-0.4v21.2c0,1.8,1.5,3.3,3.3,3.3s3.3-1.5,3.3-3.3v-22.1
			c15-2.7,28.6-9.1,40-18.2l11.9,11.8l-0.5,0.5c-1.1,1.1-1.7,2.6-1.7,4.2c0,1.6,0.6,3.1,1.7,4.2l8.3,8.3c0,0,0,0,0,0l9.4,9.4
			c0,0,0,0,0,0l26.7,26.7c1.1,1.1,2.6,1.7,4.2,1.7c1.6,0,3.1-0.6,4.2-1.7l15-15c1.1-1.1,1.7-2.6,1.7-4.2S237.4,214.1,236.3,213
			L236.3,213z M166.9,162.3l11.5,11.5l-4.7,4.7L162.2,167C163.8,165.5,165.4,163.9,166.9,162.3L166.9,162.3z M188.5,202.7l-4.7-4.7
			l14-14l4.7,4.7L188.5,202.7z M187.8,173.8l5.5,5.5l-14,14l-5.5-5.5L187.8,173.8z"/>
		<path class="st0" d="M55.3,162.1c13.3,10,29.2,15.3,46.1,15.5c42,0,76.2-34.2,76.2-76.2s-34.2-76.2-76.2-76.2
			c-20.3,0-39.3,7.9-53.7,22.3C33.4,62,25.5,81.1,25.2,101.5c-0.2,18.7,6.6,36.7,19.2,50.7c1.2,1.4,3.3,1.5,4.7,0.2
			c1.4-1.2,1.5-3.3,0.2-4.7c-11.4-12.7-17.6-29.1-17.5-46.2c0.2-18.6,7.5-36.1,20.6-49.2C65.5,39.2,82.9,32,101.4,32
			c38.3,0,69.5,31.2,69.5,69.5S139.8,171,101.4,171c-15.5-0.2-30-5.1-42.2-14.2c-1.5-1.1-3.5-0.8-4.6,0.7
			C53.5,158.9,53.8,161,55.3,162.1L55.3,162.1z"/>
		<path class="st0" d="M114,42.3H91c-2.8,0-5.1,2.3-5.1,5.1v11.7H64.5c-2.8,0-5.1,2.3-5.1,5.1v35.5H55c-1.8,0-3.3,1.5-3.3,3.3
			s1.5,3.3,3.3,3.3h95c1.8,0,3.3-1.5,3.3-3.3s-1.5-3.3-3.3-3.3h-4.4V81c0-2.8-2.3-5.1-5.1-5.1h-21.4V47.4
			C119.1,44.6,116.8,42.3,114,42.3z M66.1,65.7H86v34H66.1V65.7z M92.6,49h19.9v50.8H92.6V49z M138.9,82.5v17.2h-19.9V82.5H138.9z"
			/>
		<path class="st0" d="M139.6,134.4H124l-7.1-18.1c-0.5-1.3-1.7-2.1-3.1-2.1c-1.4,0-2.6,0.9-3.1,2.2l-9.7,26.1l-6.8-19.2
			c-0.4-1.2-1.5-2.1-2.8-2.2c-1.3-0.1-2.5,0.5-3.2,1.7l-6.5,11.6H66.2c-1.8,0-3.3,1.5-3.3,3.3c0,1.8,1.5,3.3,3.3,3.3h17.5
			c1.2,0,2.3-0.6,2.9-1.7l3.9-6.9l7.4,20.9c0.5,1.3,1.7,2.2,3.1,2.2h0c1.4,0,2.6-0.9,3.1-2.2l9.8-26.5l4.7,12.1
			c0.5,1.3,1.7,2.1,3.1,2.1h17.9c1.8,0,3.3-1.5,3.3-3.3C142.9,135.9,141.4,134.4,139.6,134.4z"/>
	</g>
</g>
</svg>
