<?xml version="1.0" encoding="utf-8"?>
<!-- Generator: Adobe Illustrator 22.0.1, SVG Export Plug-In . SVG Version: 6.00 Build 0)  -->
<svg version="1.1" id="Camada_1" xmlns="http://www.w3.org/2000/svg" xmlns:xlink="http://www.w3.org/1999/xlink" x="0px" y="0px"
	 viewBox="0 0 250 250" style="enable-background:new 0 0 250 250;" xml:space="preserve">
<style type="text/css">
	.st0{fill:#FFFFFF;}
</style>
<g>
	<g>
		<path class="st0" d="M230.3,124.7h-3.9V42.8c0-10.8-8.7-19.5-19.5-19.5H43.1c-10.8,0-19.5,8.7-19.5,19.5v58.5h-3.9
			C13.3,101.3,8,106.5,8,113v101.4c0,6.5,5.2,11.7,11.7,11.7h148.2c2.2,0,3.9-1.7,3.9-3.9c0-10.8-8.7-19.5-19.5-19.5h-11.7v-23.4
			h46.8v35.1c0,6.5,5.2,11.7,11.7,11.7h31.2c6.5,0,11.7-5.2,11.7-11.7v-78C242,129.9,236.8,124.7,230.3,124.7z M93.8,214.4
			c0,2.2-1.7,3.9-3.9,3.9H19.7c-2.2,0-3.9-1.7-3.9-3.9v-3.9h78V214.4z M93.8,202.7h-78V113c0-2.2,1.7-3.9,3.9-3.9h70.2
			c2.2,0,3.9,1.7,3.9,3.9V202.7z M152.3,210.5c5,0,9.4,3.1,11,7.8h-62.5c0.5-1.2,0.7-2.6,0.7-3.9v-3.9H152.3z M101.6,202.7v-23.4
			h7.8v23.4H101.6z M117.2,202.7v-23.4h15.6v23.4H117.2z M187.4,171.5h-85.8v-23.4h85.8V171.5z M187.4,136.4v3.9h-85.8V113
			c0-1.9-0.5-3.7-1.3-5.3c0.1-0.1,0.1-0.1,0.2-0.1l38.6-38.6c1.5-1.5,1.5-4-0.1-5.5c-1.5-1.5-3.9-1.5-5.4,0L95,102
			c-0.1,0.1-0.1,0.2-0.2,0.3c-1.5-0.7-3.2-1.1-4.8-1.1H31.4V42.8c0-6.5,5.2-11.7,11.7-11.7h163.8c6.5,0,11.7,5.2,11.7,11.7v81.9
			h-19.5C192.7,124.7,187.4,129.9,187.4,136.4z M234.2,214.4c0,2.2-1.7,3.9-3.9,3.9h-31.2c-2.2,0-3.9-1.7-3.9-3.9v-3.9h39V214.4z
			 M234.2,202.7h-39v-66.3c0-2.2,1.7-3.9,3.9-3.9h31.2c2.2,0,3.9,1.7,3.9,3.9V202.7z"/>
	</g>
</g>
</svg>
