<?xml version="1.0" encoding="utf-8"?>
<!-- Generator: Adobe Illustrator 24.2.3, SVG Export Plug-In . SVG Version: 6.00 Build 0)  -->
<svg version="1.1" id="Camada_1" xmlns="http://www.w3.org/2000/svg" xmlns:xlink="http://www.w3.org/1999/xlink" x="0px" y="0px"
	 viewBox="0 0 681 681" style="enable-background:new 0 0 681 681;" xml:space="preserve">
<style type="text/css">
	.st0{fill:#FFFFFF;stroke:#FFFFFF;stroke-width:4;stroke-miterlimit:10;}
</style>
<g>
	<path class="st0" d="M586.5,471.5c-47.42,0-86-38.58-86-86c0-2.21-1.79-4-4-4s-4,1.79-4,4c0,47.42-38.58,86-86,86
		c-2.21,0-4,1.79-4,4s1.79,4,4,4c47.42,0,86,38.58,86,86c0,2.21,1.79,4,4,4s4-1.79,4-4c0-47.42,38.58-86,86-86c2.21,0,4-1.79,4-4
		S588.71,471.5,586.5,471.5z M545.55,480.9c-18.94,9.21-34.45,24.71-43.66,43.66l-5.4,11.1l-5.4-11.1
		c-9.21-18.94-24.71-34.45-43.66-43.66l-11.1-5.4l11.1-5.4c18.94-9.21,34.45-24.71,43.66-43.66l5.4-11.1l5.4,11.1
		c9.21,18.94,24.71,34.45,43.66,43.66l11.1,5.4L545.55,480.9z"/>
	<path class="st0" d="M150.5,235.5c0,2.21,1.79,4,4,4s4-1.79,4-4c0-30.88,25.12-56,56-56c2.21,0,4-1.79,4-4s-1.79-4-4-4
		c-30.88,0-56-25.12-56-56c0-2.21-1.79-4-4-4s-4,1.79-4,4c0,30.88-25.12,56-56,56c-2.21,0-4,1.79-4,4s1.79,4,4,4
		C125.38,179.5,150.5,204.62,150.5,235.5z M118.9,175.5l8.53-5.14c8.95-5.4,16.54-12.98,21.93-21.93l5.14-8.53l5.14,8.53
		c5.4,8.95,12.98,16.54,21.93,21.93l8.53,5.14l-8.53,5.14c-8.95,5.4-16.54,12.98-21.93,21.93l-5.14,8.53l-5.14-8.53
		c-5.4-8.95-12.98-16.54-21.93-21.93L118.9,175.5z"/>
	<circle class="st0" cx="363.5" cy="378.5" r="4"/>
	<path class="st0" d="M490.5,329.5c2.21,0,4-1.79,4-4s-1.79-4-4-4c-97.05,0-176-78.95-176-176c0-2.21-1.79-4-4-4s-4,1.79-4,4
		c0,97.05-78.95,176-176,176c-2.21,0-4,1.79-4,4s1.79,4,4,4c97.05,0,176,78.95,176,176c0,2.21,1.79,4,4,4s4-1.79,4-4
		c0-31.63,8.48-62.64,24.53-89.68c0.55-0.92,0.7-2,0.44-3.03c-0.26-1.03-0.92-1.9-1.83-2.45c-0.92-0.55-2-0.7-3.03-0.44
		c-1.03,0.26-1.9,0.92-2.45,1.83c-6.51,10.97-11.88,22.67-15.97,34.79l-5.67,16.8l-5.69-16.79
		c-18.3-53.94-61.42-97.06-115.36-115.35l-16.76-5.68l16.76-5.68c53.95-18.29,97.08-61.42,115.37-115.37l5.68-16.76l5.68,16.76
		c18.29,53.94,61.41,97.07,115.35,115.36l16.79,5.69l-16.8,5.67c-12.12,4.09-23.82,9.47-34.79,15.97c-1.9,1.13-2.52,3.58-1.4,5.48
		l0,0c0.54,0.92,1.41,1.57,2.45,1.83c1.04,0.26,2.11,0.11,3.03-0.44C427.86,337.98,458.88,329.5,490.5,329.5z"/>
</g>
</svg>
