<?xml version="1.0" encoding="utf-8"?>
<!-- Generator: Adobe Illustrator 24.2.3, SVG Export Plug-In . SVG Version: 6.00 Build 0)  -->
<svg version="1.1" id="Camada_1" xmlns="http://www.w3.org/2000/svg" xmlns:xlink="http://www.w3.org/1999/xlink" x="0px" y="0px"
	 viewBox="0 0 681 681" style="enable-background:new 0 0 681 681;" xml:space="preserve">
<style type="text/css">
	.st0{fill:#FFFFFF;stroke:#FFFFFF;stroke-width:2.2534;stroke-miterlimit:10;}
	.st1{fill:#FFFFFF;stroke:#FFFFFF;stroke-width:7.5114;stroke-miterlimit:10;}
</style>
<g>
	<path class="st0" d="M344.1,213.72c-0.63-1.29-1.92-2.09-3.36-2.09c-1.44,0-2.72,0.8-3.35,2.09L234.36,423.89
		c-0.63,1.29-0.47,2.8,0.42,3.93l65.29,83.24h-28.64c-10.32,0-18.72,8.38-18.72,18.69v37.43c0,4.12,3.35,7.47,7.48,7.47h161.1
		c4.12,0,7.48-3.35,7.48-7.47v-37.43c0-10.31-8.4-18.69-18.72-18.69H381.2l65.51-83.24c0.89-1.13,1.05-2.64,0.42-3.93L344.1,213.72z
		 M410.05,518.5c6.2,0,11.25,5.05,11.25,11.25v37.45H260.18v-37.45c0-6.2,5.05-11.25,11.26-11.25H410.05z M308.37,509.57
		l-66.27-84.51l98.64-201.24l98.65,201.24l-66.9,85.01c-0.49,0.62-1.24,0.99-2.04,0.99h-59.03
		C310.23,511.06,309.11,510.51,308.37,509.57z"/>
	<path class="st0" d="M566.95,307.07h-19.74l-0.44-5.15c-1.36-15.85-6.06-47.19-22.33-79.02c-16.19-31.67-39.68-55.25-69.79-70.09
		l-21.69-10.69h78.03l1.11,4.19c2.07,7.83,6.97,14.49,13.8,18.76c5.08,3.19,10.89,4.87,16.8,4.87c2.41,0,4.83-0.28,7.2-0.82
		c8.32-1.89,15.38-6.88,19.89-14.06c4.5-7.16,5.94-15.68,4.04-23.99c-1.9-8.29-6.9-15.34-14.07-19.84
		c-7.18-4.51-15.71-5.94-24.02-4.04c-8.31,1.9-15.37,6.89-19.87,14.06c-1.79,2.86-3.11,5.94-3.92,9.15l-1.07,4.26h-138.3v-20.59
		c0-4.12-3.36-7.47-7.48-7.47h-48.7c-4.13,0-7.48,3.35-7.48,7.47v21.07H170.42l-1.03-4.33c-3.42-14.39-16.15-24.44-30.96-24.44
		c-17.55,0-31.83,14.26-31.83,31.8c0,17.53,14.28,31.79,31.83,31.79c14.23,0,26.84-9.56,30.66-23.25l1.15-4.12h78.19l-21.77,10.69
		c-30.22,14.84-53.77,38.42-70,70.09c-16.29,31.79-21.03,63.16-22.4,79.03l-0.44,5.15h-19.98c-4.12,0-7.48,3.35-7.48,7.47v48.66
		c0,4.11,3.35,7.46,7.48,7.46h48.71c4.12,0,7.48-3.35,7.48-7.46V315c0-4.12-3.35-7.47-7.48-7.47h-21.27l0.6-6.18
		c1.46-15.11,6.19-44.89,21.42-74.61c12.53-24.45,29.62-43.91,50.81-57.86c24.3-16,54.23-24.79,88.95-26.13l5.85-0.23v20.18
		c0,4.11,3.36,7.46,7.48,7.46h48.7c4.12,0,7.48-3.35,7.48-7.46v-20.64l5.85,0.23c34.46,1.34,64.18,10.06,88.35,25.91
		c21.11,13.85,38.17,33.19,50.7,57.48c15.35,29.76,20.15,59.88,21.65,75.19l0.61,6.18h-21.49c-4.13,0-7.48,3.35-7.48,7.47v48.66
		c0,4.11,3.36,7.46,7.48,7.46h48.7c4.12,0,7.48-3.35,7.48-7.46v-48.66C574.43,310.42,571.07,307.07,566.95,307.07z M520.98,127.38
		c0.13-0.34,0.29-0.68,0.5-1.04l0,0c0.01-0.02,0.03-0.05,0.06-0.09c0.04-0.07,0.08-0.14,0.13-0.21l1.06-1.69
		c0.04-0.07,0.09-0.14,0.13-0.2c0.03-0.04,0.04-0.07,0.05-0.09l0,0c0.22-0.32,0.44-0.6,0.68-0.85c5.67-7.29,15.16-10.83,24.36-8.87
		c9.65,2.06,17.24,10.03,18.88,19.83c1.69,10.1-3.16,20.22-12.06,25.18c-3.7,2.06-7.81,3.07-11.9,3.07c-6.12,0-12.2-2.25-16.78-6.59
		C518.4,148.58,516.41,136.75,520.98,127.38z M138.42,162.5c-13.44,0-24.37-10.92-24.37-24.34c0-13.43,10.93-24.35,24.37-24.35
		c13.43,0,24.36,10.92,24.36,24.35C162.79,151.58,151.86,162.5,138.42,162.5z M162.56,314.98v48.69h-48.73v-48.69H162.56z
		 M365.11,162.73h-48.73v-48.69h48.73V162.73z M566.96,363.21h-48.73v-48.69h48.73V363.21z"/>
	<path class="st1" d="M338.88,387.5c2.06,0,3.73-1.67,3.73-3.72c0-2.05-1.67-3.72-3.73-3.72c-2.06,0-3.74,1.67-3.74,3.72
		C335.15,385.83,336.82,387.5,338.88,387.5z"/>
	<path class="st0" d="M335.16,418.64v79.66c0,0.82,0.67,1.49,1.49,1.49h4.46c0.82,0,1.49-0.67,1.49-1.49v-79.66
		c0-0.82-0.67-1.49-1.49-1.49h-4.46C335.83,417.15,335.16,417.81,335.16,418.64z"/>
</g>
</svg>
