<?xml version="1.0" encoding="utf-8"?>
<!-- Generator: Adobe Illustrator 22.0.1, SVG Export Plug-In . SVG Version: 6.00 Build 0)  -->
<svg version="1.1" id="Camada_1" xmlns="http://www.w3.org/2000/svg" xmlns:xlink="http://www.w3.org/1999/xlink" x="0px" y="0px"
	 viewBox="0 0 250 250" style="enable-background:new 0 0 250 250;" xml:space="preserve">
<style type="text/css">
	.st0{fill:#FFFFFF;}
</style>
<g>
	<path class="st0" d="M157.7,31.3c-0.1-0.2-0.1-0.3-0.2-0.5c-0.4-0.5-0.9-0.8-1.6-0.8H94.1c-0.8,0-1.5,0.5-1.8,1.3L26.9,217.5
		c-0.2,0.6-0.1,1.2,0.2,1.7c0.4,0.5,0.9,0.8,1.6,0.8h49c8.5,0,16-5.4,18.8-13.4l28.4-80.9l28.4,80.9c2.8,8,10.4,13.4,18.8,13.4h49
		c0.6,0,1.2-0.3,1.6-0.8c0.4-0.5,0.5-1.2,0.2-1.7L157.7,31.3z M93,205.4c-2.3,6.5-8.4,10.8-15.2,10.8H31.4l0.3-0.8L95.4,33.8h57.8
		l-0.3,0.8L93,205.4z M172.3,216.2c-6.8,0-13-4.3-15.2-10.8l-30-85.4l0.1-0.2l28.8-82l62.7,178.5H172.3z"/>
</g>
</svg>
