<?xml version="1.0" encoding="utf-8"?>
<!-- Generator: Adobe Illustrator 22.0.1, SVG Export Plug-In . SVG Version: 6.00 Build 0)  -->
<svg version="1.1" id="Camada_1" xmlns="http://www.w3.org/2000/svg" xmlns:xlink="http://www.w3.org/1999/xlink" x="0px" y="0px"
	 viewBox="0 0 250 250" style="enable-background:new 0 0 250 250;" xml:space="preserve">
<style type="text/css">
	.st0{fill:#FFFFFF;}
	.st1{fill:none;stroke:#FFFFFF;stroke-width:2.5151;stroke-miterlimit:10;}
</style>
<g>
	<g>
		<g>
			<path class="st0" d="M90.7,219.9c22.8,0,45.7,0,68.5,0c1.2,0,1.2-1.9,0-1.9c-22.8,0-45.7,0-68.5,0
				C89.5,218.1,89.5,219.9,90.7,219.9L90.7,219.9z"/>
		</g>
	</g>
	<g>
		<g>
			<path class="st0" d="M126.3,212.1c0-12.3,0-24.5,0-36.8c0-1.2-1.9-1.2-1.9,0c0,12.3,0,24.5,0,36.8
				C124.4,213.3,126.3,213.3,126.3,212.1L126.3,212.1z"/>
		</g>
	</g>
	<g>
		<g>
			<path class="st0" d="M119,175.9c4.4,0,8.8,0,13.2,0c1.2,0,1.2-1.9,0-1.9c-4.4,0-8.8,0-13.2,0C117.8,174,117.8,175.9,119,175.9
				L119,175.9z"/>
		</g>
	</g>
	<g>
		<g>
			<path class="st0" d="M101.7,211.5c0-2.8,0.5-5.6-0.6-8.2c-1.6-3.9-4.3-7.7-6.3-11.4c-2.6-4.6-5.1-9.2-7.7-13.8
				c-0.6-1-1.5-2.2-1.8-3.3c0.1,0.4-0.4,0.9,0.4,0c4.6-5.8,7.9-13.2,11.7-19.5c5.8-9.7,11.6-19.4,17.4-29c3.6-6,7.2-12,10.7-18
				c-0.5,0-1.1,0-1.6,0c9,14.6,18,29.1,26.9,43.7c4.5,7.2,8.9,14.5,13.4,21.7c0.3,0.5,0.9,1.1,1.1,1.7c0.2,0.6,0.1-1,0-0.6
				c-0.1,0.4-0.5,1-0.7,1.3c-2.5,3.9-4.5,8.2-6.7,12.2c-2.8,5-5.5,10-8.3,15c-1.6,3-1.3,5.4-1.3,8.9c0,1.2,1.9,1.2,1.9,0
				c0-3.1-0.4-5.1,0.7-7.3c1.7-3.4,3.7-6.7,5.5-10c3.5-6.4,7.1-12.9,10.6-19.3c0.2-0.3,0.2-0.7,0-1c-13.8-22.4-27.7-44.9-41.5-67.3
				c-0.4-0.6-1.3-0.6-1.6,0c-8.8,14.7-17.6,29.4-26.4,44.2c-4.3,7.2-8.6,14.3-12.8,21.5c-0.7,1.2-1.1,1.6-0.8,2.9
				c0.7,3.3,4,7.3,5.6,10.2c2.9,5.3,5.8,10.5,8.8,15.8c0.4,0.7,1.6,2.7,1.7,3.1c0.3,1.4-0.1,4.7-0.1,6.6
				C99.8,212.7,101.7,212.7,101.7,211.5L101.7,211.5z"/>
		</g>
	</g>
	<circle class="st1" cx="47.7" cy="42.6" r="10.7"/>
	<circle class="st1" cx="203.3" cy="42.3" r="10.7"/>
	<g>
		<g>
			<path class="st0" d="M37.9,164.6c-7.5,0-15.1,0-22.6,0c0.3,0.3,0.6,0.6,0.9,0.9c0-7.8,0-15.5,0-23.3c-0.3,0.3-0.6,0.6-0.9,0.9
				c7.5,0,15.1,0,22.6,0c-0.3-0.3-0.6-0.6-0.9-0.9c0,7.8,0,15.5,0,23.3c0,1.2,1.9,1.2,1.9,0c0-7.8,0-15.5,0-23.3
				c0-0.5-0.4-0.9-0.9-0.9c-7.5,0-15.1,0-22.6,0c-0.5,0-0.9,0.4-0.9,0.9c0,7.8,0,15.5,0,23.3c0,0.5,0.4,0.9,0.9,0.9
				c7.5,0,15.1,0,22.6,0C39.1,166.5,39.1,164.6,37.9,164.6z"/>
		</g>
	</g>
	<g>
		<g>
			<path class="st0" d="M136.6,53.3c-7.5,0-15.1,0-22.6,0c0.3,0.3,0.6,0.6,0.9,0.9c0-7.8,0-15.5,0-23.3c-0.3,0.3-0.6,0.6-0.9,0.9
				c7.5,0,15.1,0,22.6,0c-0.3-0.3-0.6-0.6-0.9-0.9c0,7.8,0,15.5,0,23.3c0,1.2,1.9,1.2,1.9,0c0-7.8,0-15.5,0-23.3
				c0-0.5-0.4-0.9-0.9-0.9c-7.5,0-15.1,0-22.6,0c-0.5,0-0.9,0.4-0.9,0.9c0,7.8,0,15.5,0,23.3c0,0.5,0.4,0.9,0.9,0.9
				c7.5,0,15.1,0,22.6,0C137.8,55.2,137.8,53.3,136.6,53.3z"/>
		</g>
	</g>
	<g>
		<g>
			<path class="st0" d="M234.7,164.6c-7.5,0-15.1,0-22.6,0c0.3,0.3,0.6,0.6,0.9,0.9c0-7.8,0-15.5,0-23.3c-0.3,0.3-0.6,0.6-0.9,0.9
				c7.5,0,15.1,0,22.6,0c-0.3-0.3-0.6-0.6-0.9-0.9c0,7.8,0,15.5,0,23.3c0,1.2,1.9,1.2,1.9,0c0-7.8,0-15.5,0-23.3
				c0-0.5-0.4-0.9-0.9-0.9c-7.5,0-15.1,0-22.6,0c-0.5,0-0.9,0.4-0.9,0.9c0,7.8,0,15.5,0,23.3c0,0.5,0.4,0.9,0.9,0.9
				c7.5,0,15.1,0,22.6,0C235.9,166.5,235.9,164.6,234.7,164.6z"/>
		</g>
	</g>
	<line class="st1" x1="113.7" y1="42.6" x2="58.4" y2="42.6"/>
	<line class="st1" x1="136.3" y1="42.3" x2="192.9" y2="42.3"/>
	<path class="st1" d="M26.6,142.3c0,0-1.9-81.7,83-97.5l4.4-0.7"/>
	<path class="st1" d="M224.7,142.3c0,0,1.9-81.7-83-97.5l-4.4-0.7"/>
</g>
</svg>
