<?xml version="1.0" encoding="utf-8"?>
<!-- Generator: Adobe Illustrator 24.2.3, SVG Export Plug-In . SVG Version: 6.00 Build 0)  -->
<svg version="1.1" id="Camada_1" xmlns="http://www.w3.org/2000/svg" xmlns:xlink="http://www.w3.org/1999/xlink" x="0px" y="0px"
	 viewBox="0 0 681 681" style="enable-background:new 0 0 681 681;" xml:space="preserve">
<style type="text/css">
	.st0{fill:#FFFFFF;}
</style>
<g>
	<path class="st0" d="M559,105H122c-19.58,0-35.5,15.92-35.5,35.5v330c0,19.58,15.92,35.5,35.5,35.5h162.71l-9.76,34.14
		C271.1,553.62,256.01,565,242,565h-56.5c-3.03,0-5.5,2.47-5.5,5.5s2.47,5.5,5.5,5.5h310c3.03,0,5.5-2.47,5.5-5.5s-2.47-5.5-5.5-5.5
		H439c-14.01,0-29.1-11.38-32.95-24.86L396.29,506H559c19.58,0,35.5-15.92,35.5-35.5v-330C594.5,120.92,578.58,105,559,105z
		 M406.49,561.6l3.34,3.4H271.17l3.34-3.4c5.3-5.4,9.11-11.78,11.02-18.43L296.15,506h88.7l10.62,37.17
		C397.37,549.82,401.18,556.2,406.49,561.6z M583.5,470.5c0,13.51-10.99,24.5-24.5,24.5H122c-13.51,0-24.5-10.99-24.5-24.5V416h486
		V470.5z M583.5,405h-486V140.5c0-13.51,10.99-24.5,24.5-24.5h437c13.51,0,24.5,10.99,24.5,24.5V405z"/>
	<path class="st0" d="M559,135H122c-3.03,0-5.5,2.47-5.5,5.5v105c0,3.03,2.47,5.5,5.5,5.5s5.5-2.47,5.5-5.5V146h426v229h-426v-99.5
		c0-3.03-2.47-5.5-5.5-5.5s-5.5,2.47-5.5,5.5v105c0,3.03,2.47,5.5,5.5,5.5h437c3.03,0,5.5-2.47,5.5-5.5v-240
		C564.5,137.47,562.03,135,559,135z"/>
	<path class="st0" d="M340.5,476c11.3,0,20.5-9.2,20.5-20.5s-9.2-20.5-20.5-20.5s-20.5,9.2-20.5,20.5S329.2,476,340.5,476z
		 M340.5,446c5.24,0,9.5,4.26,9.5,9.5s-4.26,9.5-9.5,9.5s-9.5-4.26-9.5-9.5S335.26,446,340.5,446z"/>
</g>
</svg>
