<?xml version="1.0" encoding="utf-8"?>
<!-- Generator: Adobe Illustrator 22.0.1, SVG Export Plug-In . SVG Version: 6.00 Build 0)  -->
<svg version="1.1" id="Camada_1" xmlns="http://www.w3.org/2000/svg" xmlns:xlink="http://www.w3.org/1999/xlink" x="0px" y="0px"
	 viewBox="0 0 250 250" style="enable-background:new 0 0 250 250;" xml:space="preserve">
<style type="text/css">
	.st0{fill:#FFFFFF;}
	.st1{fill:none;stroke:#FFFFFF;stroke-width:2.9596;stroke-miterlimit:10;}
</style>
<g>
	<g>
		<g>
			<path class="st0" d="M215.8,222.2c-47.6,0-95.3,0-142.9,0c-6.8,0-13.5,0-20.3,0c0.5,0.5,1,1,1.5,1.5c0-22.2,0-44.5,0-66.7
				c0-35.4,0-70.8,0-106.3c0-8.1,0-16.2,0-24.4c-0.5,0.5-1,1-1.5,1.5c47.6,0,95.3,0,142.9,0c6.8,0,13.5,0,20.3,0
				c-0.5-0.5-1-1-1.5-1.5c0,22.2,0,44.5,0,66.7c0,35.4,0,70.8,0,106.3c0,8.1,0,16.2,0,24.4c0,1.9,3,1.9,3,0c0-22.2,0-44.5,0-66.7
				c0-35.4,0-70.8,0-106.3c0-8.1,0-16.2,0-24.4c0-0.8-0.7-1.5-1.5-1.5c-47.6,0-95.3,0-142.9,0c-6.8,0-13.5,0-20.3,0
				c-0.8,0-1.5,0.7-1.5,1.5c0,22.2,0,44.5,0,66.7c0,35.4,0,70.8,0,106.3c0,8.1,0,16.2,0,24.4c0,0.8,0.7,1.5,1.5,1.5
				c47.6,0,95.3,0,142.9,0c6.8,0,13.5,0,20.3,0C217.7,225.1,217.7,222.2,215.8,222.2z"/>
		</g>
	</g>
	<g>
		<g>
			<path class="st0" d="M70.1,64.3c-12,0-23.9,0-35.9,0c-1.9,0-1.9,3,0,3c12,0,23.9,0,35.9,0C72,67.3,72,64.3,70.1,64.3
				c-12,0-23.9,0-35.9,0c-1.9,0-1.9,3,0,3c12,0,23.9,0,35.9,0C72,67.3,72,64.3,70.1,64.3z"/>
		</g>
	</g>
	<g>
		<g>
			<path class="st0" d="M70.1,103.8c-12,0-23.9,0-35.9,0c-1.9,0-1.9,3,0,3c12,0,23.9,0,35.9,0C72,106.7,72,103.8,70.1,103.8
				c-12,0-23.9,0-35.9,0c-1.9,0-1.9,3,0,3c12,0,23.9,0,35.9,0C72,106.7,72,103.8,70.1,103.8z"/>
		</g>
	</g>
	<g>
		<g>
			<path class="st0" d="M70.1,145c-12,0-23.9,0-35.9,0c-1.9,0-1.9,3,0,3c12,0,23.9,0,35.9,0C72,148,72,145,70.1,145
				c-12,0-23.9,0-35.9,0c-1.9,0-1.9,3,0,3c12,0,23.9,0,35.9,0C72,148,72,145,70.1,145z"/>
		</g>
	</g>
	<g>
		<g>
			<path class="st0" d="M70.1,184.5c-12,0-23.9,0-35.9,0c-1.9,0-1.9,3,0,3c12,0,23.9,0,35.9,0C72,187.5,72,184.5,70.1,184.5
				c-12,0-23.9,0-35.9,0c-1.9,0-1.9,3,0,3c12,0,23.9,0,35.9,0C72,187.5,72,184.5,70.1,184.5z"/>
		</g>
	</g>
	<ellipse class="st1" cx="142.2" cy="83.7" rx="22.4" ry="28.5"/>
	<path class="st1" d="M100.8,170.9v-31.1c0,0,34.5-32.8,82.9,0v31.1H100.8z"/>
	<g>
		<g>
			<path class="st0" d="M103.4,196.6c25,0,50,0,75,0c1.9,0,1.9-3,0-3c-25,0-50,0-75,0C101.5,193.6,101.5,196.6,103.4,196.6
				L103.4,196.6z"/>
		</g>
	</g>
</g>
</svg>
