<?xml version="1.0" encoding="utf-8"?>
<!-- Generator: Adobe Illustrator 22.0.1, SVG Export Plug-In . SVG Version: 6.00 Build 0)  -->
<svg version="1.1" id="Camada_1" xmlns="http://www.w3.org/2000/svg" xmlns:xlink="http://www.w3.org/1999/xlink" x="0px" y="0px"
	 viewBox="0 0 250 250" style="enable-background:new 0 0 250 250;" xml:space="preserve">
<style type="text/css">
	.st0{fill:#FFFFFF;}
	.st1{fill:none;stroke:#FFFFFF;stroke-width:2.8411;stroke-miterlimit:10;}
</style>
<g>
	<path class="st0" d="M218.2,55.3H31.8c-2.7,0-4.9,2.2-4.9,4.9v110.2c0,2.7,2.2,4.9,4.9,4.9h186.3c2.7,0,4.9-2.2,4.9-4.9V60.3
		C223.1,57.5,220.9,55.3,218.2,55.3z M220,170.4c0,1-0.8,1.8-1.8,1.8H31.8c-1,0-1.8-0.8-1.8-1.8V60.3c0-1,0.8-1.8,1.8-1.8h186.3
		c1,0,1.8,0.8,1.8,1.8V170.4z"/>
	<path class="st0" d="M241.8,182.6h-7.4h-1v-1V57.4c0-6.9-5.6-12.4-12.4-12.4H29c-6.9,0-12.4,5.6-12.4,12.4v124.1v1h-1H8.2
		c-0.9,0-1.6,0.7-1.6,1.6v10.6c0,5.6,4.6,10.2,10.2,10.2h216.3c5.6,0,10.2-4.6,10.2-10.2v-10.6c0-0.4-0.2-0.8-0.5-1.1
		C242.6,182.7,242.2,182.6,241.8,182.6z M19.7,181.6V57.4c0-5.1,4.2-9.3,9.3-9.3h192c5.1,0,9.3,4.2,9.3,9.3v124.1v1h-1H20.7h-1
		V181.6z M112.3,185.7h25.3h2.6h99h1v1v8.1c0,3.9-3.2,7.1-7.1,7.1H16.8c-3.9,0-7.1-3.2-7.1-7.1v-8.1v-1h1h99H112.3z"/>
	<g>
		<g>
			<path class="st1" d="M103,125.6c0.2,0.5,0.7,0.9,1.3,0.9h17.2l-7.4,16c-0.2,0.3-0.2,0.7,0,1.1c0.1,0.3,0.4,0.6,0.7,0.8l9.7,4.1
				c0.2,0.1,0.4,0.1,0.5,0.1c0.5,0,1-0.3,1.3-0.8l7.4-15.9l11,13.5c0.4,0.5,1,0.6,1.5,0.4c0.5-0.2,0.9-0.7,0.9-1.3V83.6
				c0-0.6-0.3-1.1-0.9-1.3c-0.5-0.2-1.1-0.1-1.5,0.3l-41.4,41.4C102.9,124.5,102.8,125.1,103,125.6z"/>
		</g>
	</g>
</g>
</svg>
