<?xml version="1.0" encoding="utf-8"?>
<!-- Generator: Adobe Illustrator 22.0.1, SVG Export Plug-In . SVG Version: 6.00 Build 0)  -->
<svg version="1.1" id="Camada_1" xmlns="http://www.w3.org/2000/svg" xmlns:xlink="http://www.w3.org/1999/xlink" x="0px" y="0px"
	 viewBox="0 0 250 250" style="enable-background:new 0 0 250 250;" xml:space="preserve">
<style type="text/css">
	.st0{fill:none;stroke:#FFFFFF;stroke-width:5.189;stroke-miterlimit:10;}
	.st1{fill:none;stroke:#FFFFFF;stroke-width:3.4593;stroke-miterlimit:10;}
	.st2{fill:#FFFFFF;}
</style>
<g>
	<path class="st0" d="M156.7,53.2l76.5-0.3c6.2,0,11.2,5.3,11.2,11.8v154.6c0,6.5-5,11.8-11.2,11.8h-83c-6.2,0-11.2-5.3-11.2-11.8
		v-49.7"/>
	<path class="st1" d="M203.1,73.9h-23.8c-1,0-1.8-0.8-1.8-1.8v-2.6c0-1,0.8-1.8,1.8-1.8h23.8c1,0,1.8,0.8,1.8,1.8v2.6
		C204.9,73.1,204.1,73.9,203.1,73.9z"/>
	<line class="st0" x1="171.5" y1="86.1" x2="243.9" y2="86.1"/>
	<line class="st0" x1="138.5" y1="198.8" x2="243.9" y2="198.8"/>
	<ellipse class="st1" cx="191.2" cy="214.6" rx="6.8" ry="7.2"/>
	<g>
		<g>
			<path class="st2" d="M9.2,135c18.3,44.4,70,66.6,114.6,47.4c14.1-6.1,26.1-15.8,35.4-28c-0.7,0.4-1.5,0.9-2.2,1.3
				c14-1.2,27.9-2.4,41.9-3.7c2.2-0.2,3.5-2.7,1.8-4.4c-9.1-9.5-18.2-19-27.3-28.5c0.2,0.8,0.4,1.7,0.7,2.5
				c9.5-45.3-18.3-91.3-63.4-102.6C70,8.8,26.6,30.2,10.1,68.8C1,89.9,0.8,113.7,9.2,135c1.2,3.1,6.2,1.7,5-1.4
				c-9.1-23.2-7.7-49.3,4.7-71.1c12.6-22,35.4-37.3,60.6-40.4c24.3-3,49.2,5.4,66.8,22.5c9.4,9.1,16.5,20.5,20.5,32.9
				c2.7,8.1,4.1,16.6,4.1,25.1c0,4.2-0.3,8.4-0.9,12.5c-0.4,2.3-1.7,5.2-0.5,7.4c0.9,1.7,2.9,3.1,4.2,4.5c3.1,3.2,6.2,6.5,9.3,9.7
				c4.7,4.9,9.3,9.7,14,14.6c0.6-1.5,1.2-3,1.8-4.4c-8.4,0.7-16.9,1.5-25.3,2.2c-4.7,0.4-9.4,0.8-14.1,1.2c-0.8,0.1-1.7,0-2.5,0.2
				c-3.2,0.8-5.1,4.9-7.3,7.3C125,184.7,84.3,192,52,175.2c-17.1-8.9-30.5-23.7-37.9-41.5C12.9,130.6,7.9,131.9,9.2,135z"/>
		</g>
	</g>
	<g>
		<path class="st2" d="M137.3,98.2l-0.7-0.7l0.6-0.7c1.9-2.1,2.8-4.9,2.6-7.7c-0.5-5.1-5.1-9.2-10.6-9.2h-28.7l0.4-1.3
			c1.3-3.9,3.5-11.5,3.5-17.4c0-8.9-7.7-16.8-12.3-16.8c-4.1,0-7.1,2.2-7.4,2.5c-0.3,0.2-0.5,0.6-0.5,1v15.2l-13,28.2L69,92.5v-2.4
			c0-0.7-0.6-1.2-1.2-1.2H45.6c-5.6,0-10.1,4.5-10.1,10.1v35.5c0,5.6,4.5,10.1,10.1,10.1h13.3c4.2,0,8.1-2.7,9.5-6.7l0.4-1l1,0.5
			c3.6,1.8,8.4,2.8,11.3,2.8h40.7c4.4,0,8.2-2.9,9.1-7c0.5-2.1,0.2-4.2-0.7-6l-0.4-0.9l0.9-0.4c3-1.5,4.9-4.6,4.9-8
			c0-1.4-0.3-2.8-0.9-4l-0.4-0.9l0.9-0.4c3-1.5,4.9-4.6,4.9-8C139.9,102.1,139,99.9,137.3,98.2z M66.5,134.4c0,4.2-3.4,7.6-7.6,7.6
			H45.6c-4.2,0-7.6-3.4-7.6-7.6V98.9c0-4.2,3.4-7.6,7.6-7.6h20.9V134.4z M131.6,110.9c-0.5,0.1-0.9,0.4-1,0.8c-0.2,0.5,0,1,0.3,1.3
			c1.3,1.2,2.1,2.9,2.1,4.7c0,3.3-2.5,6.1-5.8,6.4c-0.5,0.1-0.9,0.4-1,0.8c-0.1,0.5,0,1,0.3,1.3c1.7,1.6,2.4,3.9,1.9,6.2
			c-0.6,2.9-3.4,5-6.7,5H81c-3.3,0-8.9-1.4-11.7-3.4l-0.4-0.3V95.3l3.7-1.9c0.2-0.1,0.5-0.3,0.6-0.6L86.6,64
			c0.1-0.2,0.1-0.3,0.1-0.5V48.6l0.5-0.3c1.1-0.6,2.8-1.3,4.9-1.3c3.2,0,9.8,6.8,9.8,14.3c0,7.6-3.9,18.3-4.3,19.5
			c-0.2,0.4-0.1,0.8,0.1,1.2c0.2,0.3,0.6,0.5,1,0.5h30.5c4.2,0,7.8,3,8.1,6.9c0.3,2.9-1.1,5.7-3.6,7.2c-0.4,0.2-0.6,0.7-0.6,1.1
			c0,0.4,0.3,0.9,0.7,1.1c2.2,1.1,3.6,3.3,3.6,5.8C137.4,107.8,134.9,110.5,131.6,110.9z"/>
	</g>
</g>
</svg>
