<?xml version="1.0" encoding="utf-8"?>
<!-- Generator: Adobe Illustrator 24.2.3, SVG Export Plug-In . SVG Version: 6.00 Build 0)  -->
<svg version="1.1" id="Camada_1" xmlns="http://www.w3.org/2000/svg" xmlns:xlink="http://www.w3.org/1999/xlink" x="0px" y="0px"
	 viewBox="0 0 681 681" style="enable-background:new 0 0 681 681;" xml:space="preserve">
<style type="text/css">
	.st0{fill:#FFFFFF;stroke:#FFFFFF;stroke-miterlimit:10;}
	.st1{fill:none;stroke:#FFFFFF;stroke-width:11;stroke-miterlimit:10;}
	.st2{fill:#FFFFFF;stroke:#FFFFFF;stroke-width:4;stroke-miterlimit:10;}
</style>
<g>
	<path class="st0" d="M203.02,367.66c-1.76,0-3.19,1.43-3.19,3.19c0,1.76,1.43,3.18,3.19,3.18h185.66c0,0,2.08,0.13,2.24-3.18
		c0-1.76-1.43-3.19-3.19-3.19h-25.48V192.49c0-1.76-1.43-3.19-3.19-3.19h-19.11c-1.76,0-3.18,1.43-3.18,3.19v175.16h-9.55V230.71
		c0-1.76-1.43-3.19-3.19-3.19h-19.11c-1.76,0-3.18,1.43-3.18,3.19v136.94h-9.55V265.74c0-1.76-1.43-3.19-3.19-3.19H269.9
		c-1.76,0-3.19,1.43-3.19,3.19v101.91h-9.55v-66.88c0-1.76-1.43-3.18-3.19-3.18h-19.11c-1.76,0-3.19,1.43-3.19,3.18v66.88h-19.11
		L203.02,367.66z M238.05,367.65v-63.7h12.74v63.7H238.05z M273.09,367.65v-98.73h12.74v98.73H273.09z M308.12,367.65V233.89h12.74
		v133.76H308.12z M343.15,367.65V195.68h12.74v171.98H343.15z"/>
	<circle class="st1" cx="300.32" cy="300.25" r="159.65"/>
	<path class="st2" d="M565.14,512.12L462.71,409.68l1.98-3.06c41.83-64.43,41.84-147.67,0.05-212.11l-9.27-13.1
		c-31.79-41.38-77.8-67.92-129.54-74.73c-51.78-6.81-103.1,6.95-144.52,38.75c-41.42,31.8-67.99,77.82-74.79,129.59
		c-6.81,51.77,6.95,103.1,38.75,144.52c61.62,80.27,176.42,100.07,261.35,45.06l3.05-1.98l102.43,102.43
		c14.6,14.6,38.35,14.6,52.95,0S579.74,526.72,565.14,512.12z M300.58,488.97c-58.95,0-117.06-27.46-153.87-78.98
		c-60.51-84.7-40.83-202.84,43.87-263.36c41.03-29.31,91.02-40.89,140.76-32.61c49.74,8.29,93.28,35.45,122.59,76.48
		c46.89,65.64,46.89,153.85,0,219.49l0,0c-2.85,3.98-5.48,7.43-8.05,10.54c-0.55,0.66-1.12,1.31-1.69,1.96
		c-0.29,0.33-0.57,0.65-0.86,0.98c-2.48,2.89-5.1,5.75-7.76,8.48c-1.15,1.19-2.35,2.39-3.56,3.56c-2.72,2.66-5.58,5.28-8.49,7.77
		c-0.46,0.39-0.89,0.77-1.32,1.15c-0.52,0.46-1.04,0.92-1.58,1.37c-3.13,2.58-6.57,5.22-10.55,8.07
		C376.89,477.57,338.56,488.97,300.58,488.97z M415.66,458.63l4.08-3.12c0.59-0.45,1.16-0.93,1.73-1.41
		c0.49-0.42,0.99-0.83,1.49-1.23c1.09-0.87,2.34-1.91,3.51-2.88c1.89-1.58,3.54-3.02,5.06-4.38c0.5-0.46,1.02-0.95,1.54-1.44
		l0.96-0.9c3.19-2.99,6.33-6.12,9.32-9.32l0.94-0.99c0.48-0.51,0.96-1.01,1.43-1.53c1.33-1.47,2.76-3.13,4.36-5.03
		c0.99-1.17,1.95-2.34,2.88-3.5c0.4-0.51,0.82-1,1.24-1.5c0.48-0.57,0.96-1.13,1.41-1.72l3.12-4.08l28.96,28.96l-43.05,43.05
		L415.66,458.63z M560.65,560.08c-5.68,5.82-13.29,9.07-21.42,9.16c-0.12,0-0.24,0-0.36,0c-8,0-15.54-3.07-21.27-8.67
		c-0.16-0.15-0.33-0.32-0.5-0.5l-67.54-67.54l43.05-43.05l67.56,67.56c5.8,5.68,9.05,13.28,9.14,21.41
		C569.41,546.59,566.33,554.27,560.65,560.08z"/>
</g>
</svg>
