<?xml version="1.0" encoding="utf-8"?>
<!-- Generator: Adobe Illustrator 22.0.1, SVG Export Plug-In . SVG Version: 6.00 Build 0)  -->
<svg version="1.1" id="Camada_1" xmlns="http://www.w3.org/2000/svg" xmlns:xlink="http://www.w3.org/1999/xlink" x="0px" y="0px"
	 viewBox="0 0 250 250" style="enable-background:new 0 0 250 250;" xml:space="preserve">
<style type="text/css">
	.st0{fill:#FFFFFF;}
</style>
<g>
	<g>
		<path class="st0" d="M154.9,170.9c25.8-11.7,42.5-37.6,42.5-65.9c0-15.3-4.7-29.9-13.6-42.3c-1.1-1.5-3.2-1.9-4.8-0.8
			c-1.5,1.1-1.9,3.2-0.8,4.8c8.1,11.2,12.3,24.4,12.3,38.3c0,25.6-15.1,49.1-38.5,59.7c-4.5,2.1-7.5,6.6-7.5,11.5v15.4h-39.1v-15.4
			c0-4.9-2.9-9.4-7.4-11.5c-23.5-10.6-38.7-34.2-38.6-60c0.2-35.9,29.5-65.2,65.5-65.2c15.8,0,31.1,5.7,43,16.1
			c1.4,1.2,3.6,1.1,4.8-0.3c1.2-1.4,1.1-3.6-0.3-4.8c-13.1-11.4-30-17.7-47.4-17.7c-19.3,0-37.4,7.5-51,21
			c-13.6,13.6-21.2,31.7-21.3,50.9c-0.1,28.5,16.6,54.5,42.6,66.2c2,0.9,3.4,3,3.4,5.2v15.4h-1.2c-4.4,0-8,3.6-8,8v5.5
			c0,4.2,3.3,7.7,7.4,8l2.9,17.9c1,6.1,6.2,10.6,12.4,10.6h4.9c1.9,0,3.4-1.5,3.4-3.4s-1.5-3.4-3.4-3.4h-4.9c-2.9,0-5.3-2-5.7-4.9
			l-2.7-16.8h5.3c1.9,0,3.4-1.5,3.4-3.4s-1.5-3.4-3.4-3.4H97.5c-0.7,0-1.2-0.5-1.2-1.2v-5.5c0-0.7,0.5-1.2,1.2-1.2h55.1
			c0.7,0,1.2,0.5,1.2,1.2v5.5c0,0.7-0.5,1.2-1.2,1.2H125c-1.9,0-3.4,1.5-3.4,3.4s1.5,3.4,3.4,3.4h21.3l-2.7,16.8
			c-0.5,2.8-2.9,4.9-5.7,4.9H133c-1.9,0-3.4,1.5-3.4,3.4s1.5,3.4,3.4,3.4h4.9c6.2,0,11.4-4.5,12.4-10.6l2.9-17.9
			c4.1-0.3,7.4-3.8,7.4-8v-5.5c0-4.4-3.6-8-8-8h-1.2v-15.4C151.4,173.9,152.8,171.8,154.9,170.9L154.9,170.9z"/>
		<path class="st0" d="M83,123.4v20.2c0,1.9,1.5,3.4,3.4,3.4h77.2c1.9,0,3.4-1.5,3.4-3.4v-20.2c0-12-9.8-21.8-21.8-21.8h-2.5
			c5.3-4.8,8.7-11.8,8.7-19.6c0-14.5-11.8-26.4-26.4-26.4S98.7,67.5,98.7,82.1c0,7.7,3.4,14.7,8.7,19.6h-2.5
			C92.8,101.6,83,111.4,83,123.4L83,123.4z M105.5,82.1c0-10.8,8.8-19.6,19.6-19.6s19.6,8.8,19.6,19.6c0,10.8-8.8,19.6-19.6,19.6
			S105.5,92.8,105.5,82.1z M145.2,108.4c8.3,0,15,6.7,15,15v16.8h-12.5v-5.8c0-1.9-1.5-3.4-3.4-3.4c-1.9,0-3.4,1.5-3.4,3.4v5.8
			h-31.8v-5.8c0-1.9-1.5-3.4-3.4-3.4c-1.9,0-3.4,1.5-3.4,3.4v5.8H89.9v-16.8c0-8.3,6.7-15,15-15H145.2z"/>
		<path class="st0" d="M125,24.8c1.9,0,3.4-1.5,3.4-3.4v-9.2c0-1.9-1.5-3.4-3.4-3.4s-3.4,1.5-3.4,3.4v9.2
			C121.6,23.3,123.1,24.8,125,24.8z"/>
		<path class="st0" d="M80.3,34.3c0.6,1.1,1.8,1.7,3,1.7c0.6,0,1.2-0.1,1.7-0.5c1.6-0.9,2.2-3,1.2-4.7l-4.6-8
			c-0.9-1.6-3-2.2-4.7-1.2c-1.6,0.9-2.2,3-1.2,4.7L80.3,34.3z"/>
		<path class="st0" d="M43,61.6l8,4.6c0.5,0.3,1.1,0.5,1.7,0.5c1.2,0,2.3-0.6,3-1.7c0.9-1.6,0.4-3.7-1.2-4.7l-8-4.6
			c-1.6-0.9-3.7-0.4-4.7,1.2C40.8,58.6,41.3,60.6,43,61.6z"/>
		<path class="st0" d="M44.8,105c0-1.9-1.5-3.4-3.4-3.4h-9.2c-1.9,0-3.4,1.5-3.4,3.4c0,1.9,1.5,3.4,3.4,3.4h9.2
			C43.3,108.4,44.8,106.9,44.8,105z"/>
		<path class="st0" d="M50.9,143.9l-8,4.6c-1.6,0.9-2.2,3-1.2,4.7c0.6,1.1,1.8,1.7,3,1.7c0.6,0,1.2-0.1,1.7-0.5l8-4.6
			c1.6-0.9,2.2-3,1.2-4.7C54.6,143.5,52.6,142.9,50.9,143.9z"/>
		<path class="st0" d="M165.1,35.6c0.5,0.3,1.1,0.5,1.7,0.5c1.2,0,2.3-0.6,3-1.7l4.6-8c0.9-1.6,0.4-3.7-1.2-4.7
			c-1.6-0.9-3.7-0.4-4.7,1.2l-4.6,8C162.9,32.5,163.5,34.6,165.1,35.6L165.1,35.6z"/>
		<path class="st0" d="M197.4,66.6c0.6,0,1.2-0.1,1.7-0.5l8-4.6c1.6-0.9,2.2-3,1.2-4.7c-0.9-1.6-3-2.2-4.7-1.2l-8,4.6
			c-1.6,0.9-2.2,3-1.2,4.7C195.1,66,196.3,66.6,197.4,66.6L197.4,66.6z"/>
		<path class="st0" d="M217.8,101.6h-9.2c-1.9,0-3.4,1.5-3.4,3.4c0,1.9,1.5,3.4,3.4,3.4h9.2c1.9,0,3.4-1.5,3.4-3.4
			C221.2,103.1,219.7,101.6,217.8,101.6z"/>
		<path class="st0" d="M207.1,148.5l-8-4.6c-1.6-0.9-3.7-0.4-4.7,1.2c-0.9,1.6-0.4,3.7,1.2,4.7l8,4.6c0.5,0.3,1.1,0.5,1.7,0.5
			c1.2,0,2.3-0.6,3-1.7C209.3,151.5,208.7,149.4,207.1,148.5L207.1,148.5z"/>
	</g>
</g>
</svg>
