<?xml version="1.0" encoding="utf-8"?>
<!-- Generator: Adobe Illustrator 22.0.1, SVG Export Plug-In . SVG Version: 6.00 Build 0)  -->
<svg version="1.1" id="Camada_1" xmlns="http://www.w3.org/2000/svg" xmlns:xlink="http://www.w3.org/1999/xlink" x="0px" y="0px"
	 viewBox="0 0 250 250" style="enable-background:new 0 0 250 250;" xml:space="preserve">
<style type="text/css">
	.st0{fill:#FFFFFF;}
</style>
<g>
	<path class="st0" d="M157.1,21L145.3,9.2h-76v6.8h53l-3.9,20.3H59.5l-3.9-20.3h6.8V9.2H32.6L20.8,21v207.4l11.8,11.9h112.7
		l11.8-11.9v-90.6l38.7,15.2v-28.7h-6.8v18.7l-59.9-23.5V63.8l59.9-23.5v77.3h6.8V30.4l-38.7,15.2V21z M150.4,199.1h-24v6.8h24v19.8
		l-7.9,7.9h-107l-7.9-7.9v-19.8h92.1v-6.8H27.5V23.8l7.9-7.9h13.3L53.9,43H124l5.1-27.1h13.3l7.9,7.9v24.4l-25.2,9.9H63l-7.2,8.3
		V117l7.2,8.3h7.6l13.6,59.3H118l-8.7-37.8h10.3v-21.5h5.5l25.2,9.9L150.4,199.1L150.4,199.1z M97.5,125.3l12.1,52.6H89.6
		l-12.1-52.6L97.5,125.3z M104.4,125.3h8.5V140h-5.1L104.4,125.3z M66.1,118.5l-3.5-4V69l3.5-4h56.4v53.6H66.1z"/>
	<path class="st0" d="M34.3,42.2h6.8v6.6h-6.8V42.2z"/>
	<path class="st0" d="M34.3,28.9h6.8v6.6h-6.8V28.9z"/>
	<path class="st0" d="M34.3,55.6h6.8v20.2h-6.8V55.6z"/>
	<path class="st0" d="M136.9,216h6.8v6.8h-6.8V216z"/>
	<path class="st0" d="M78,216.3h21.9v6.8H78V216.3z"/>
	<path class="st0" d="M209.2,54.1l5-4.6c-1.9-2.1-4-4-6.1-5.6l-4.1,5.4C205.8,50.8,207.6,52.3,209.2,54.1z"/>
	<path class="st0" d="M218.7,55.2l-5.6,3.8c6.1,8.9,9.4,20.5,9.4,32.7c0,17.6-7.1,33.8-18.5,42.3l4.1,5.4
		c13.1-9.8,21.2-28.1,21.2-47.7C229.3,78.2,225.5,65.3,218.7,55.2z"/>
	<path class="st0" d="M207.8,103l6.6,1.5c0.9-4.1,1.4-8.4,1.4-12.8c0-9.9-2.4-19.4-6.8-26.9l-5.8,3.4c3.8,6.4,5.9,14.8,5.9,23.4
		C209,95.6,208.6,99.4,207.8,103L207.8,103z"/>
	<path class="st0" d="M212.3,111.4l-6.3-2.4c-0.8,2.2-1.8,4.2-2.9,6.1l5.8,3.4C210.2,116.4,211.4,114,212.3,111.4L212.3,111.4z"/>
	<path class="st0" d="M108.9,105h6.8v6.8h-6.8V105z"/>
</g>
</svg>
