<?xml version="1.0" encoding="utf-8"?>
<!-- Generator: Adobe Illustrator 22.0.1, SVG Export Plug-In . SVG Version: 6.00 Build 0)  -->
<svg version="1.1" id="Camada_1" xmlns="http://www.w3.org/2000/svg" xmlns:xlink="http://www.w3.org/1999/xlink" x="0px" y="0px"
	 viewBox="0 0 250 250" style="enable-background:new 0 0 250 250;" xml:space="preserve">
<style type="text/css">
	.st0{fill:#FFFFFF;}
</style>
<g>
	<path class="st0" d="M205.5,238.6H91.9c-13,0-23.7-10.6-23.7-23.7v-142c0-13.1,10.6-23.7,23.7-23.7h113.6c13,0,23.7,10.6,23.7,23.7
		v142C229.2,228,218.6,238.6,205.5,238.6z M91.9,58.7c-7.8,0-14.2,6.4-14.2,14.2v142c0,7.8,6.4,14.2,14.2,14.2h113.6
		c7.8,0,14.2-6.4,14.2-14.2v-142c0-7.8-6.4-14.2-14.2-14.2H91.9z"/>
	<path class="st0" d="M54,210.2h-9.5c-13,0-23.7-10.6-23.7-23.7V35c0-13.1,10.6-23.7,23.7-23.7h113.6c13,0,23.7,10.6,23.7,23.7
		c0,2.6-2.1,4.7-4.7,4.7c-2.6,0-4.7-2.1-4.7-4.7c0-7.8-6.4-14.2-14.2-14.2H44.5c-7.8,0-14.2,6.4-14.2,14.2v151.5
		c0,7.8,6.4,14.2,14.2,14.2H54c2.6,0,4.7,2.1,4.7,4.7S56.6,210.2,54,210.2z"/>
	<path class="st0" d="M186.6,172.4h-75.8c-2.6,0-4.7-2.1-4.7-4.7c0-2.6,2.1-4.7,4.7-4.7h75.8c2.6,0,4.7,2.1,4.7,4.7
		C191.3,170.2,189.2,172.4,186.6,172.4z"/>
	<path class="st0" d="M186.6,210.2h-75.8c-2.6,0-4.7-2.1-4.7-4.7s2.1-4.7,4.7-4.7h75.8c2.6,0,4.7,2.1,4.7,4.7
		S189.2,210.2,186.6,210.2z"/>
	<path class="st0" d="M186.6,134.5h-75.8c-2.6,0-4.7-2.1-4.7-4.7c0-2.6,2.1-4.7,4.7-4.7h75.8c2.6,0,4.7,2.1,4.7,4.7
		C191.3,132.4,189.2,134.5,186.6,134.5z"/>
	<path class="st0" d="M186.6,96.6h-75.8c-2.6,0-4.7-2.1-4.7-4.7c0-2.6,2.1-4.7,4.7-4.7h75.8c2.6,0,4.7,2.1,4.7,4.7
		C191.3,94.5,189.2,96.6,186.6,96.6z"/>
</g>
</svg>
