<?xml version="1.0" encoding="utf-8"?>
<!-- Generator: Adobe Illustrator 22.0.1, SVG Export Plug-In . SVG Version: 6.00 Build 0)  -->
<svg version="1.1" id="Camada_1" xmlns="http://www.w3.org/2000/svg" xmlns:xlink="http://www.w3.org/1999/xlink" x="0px" y="0px"
	 viewBox="0 0 560 170" style="enable-background:new 0 0 560 170;" xml:space="preserve">
<style type="text/css">
	.st0{fill:none;stroke:#FFFFFF;stroke-width:0.9948;stroke-miterlimit:10;}
	.st1{fill:#D2770F;stroke:#FFFFFF;stroke-width:0.9948;stroke-miterlimit:10;}
	.st2{fill:#FFFFFF;stroke:#FFFFFF;stroke-width:0.9948;stroke-miterlimit:10;}
	.st3{fill:#FFFFFF;}
	.st4{fill:#D37825;}
</style>
<g>
	<polygon class="st0" points="89.5,72.8 106.8,62.4 141.2,43.1 175.7,42.9 144.4,37.7 153.7,21.4 175.7,13.1 195.9,17.8 202.4,29.5 
		216.2,32.5 203.3,43.1 199.9,60.8 202.9,72.9 202.7,89.7 175.8,126.8 158.7,132.4 133.3,132.4 89.2,132.4 56.1,135.5 3,162.5 
		55.9,117.7 83.7,122.3 72.6,102.6 	"/>
	<polygon class="st1" points="175.7,42.9 175.6,102.2 124,72.9 	"/>
	<polygon class="st0" points="202.3,29.3 208.1,39.2 216.2,32.5 	"/>
	<line class="st0" x1="56.1" y1="135.7" x2="55.9" y2="118"/>
	<polygon class="st0" points="176.5,13.3 175.9,42.5 190.4,16.7 	"/>
	<line class="st0" x1="175.7" y1="43.1" x2="199.9" y2="60.8"/>
	<path class="st2" d="M176.8,42.9c0,0.6-0.5,1.1-1.1,1.1c-0.6,0-1.1-0.5-1.1-1.1c0-0.6,0.5-1.1,1.1-1.1
		C176.3,41.8,176.8,42.3,176.8,42.9z"/>
	<polyline class="st0" points="124,72.9 157.6,130.7 175.7,102.2 	"/>
	<line class="st0" x1="124" y1="52.8" x2="124.1" y2="73"/>
	<line class="st0" x1="124.4" y1="72.7" x2="89.3" y2="73.1"/>
	<line class="st0" x1="124" y1="72.7" x2="90.1" y2="132.4"/>
	<path class="st2" d="M125.1,72.6c0,0.6-0.5,1.1-1.1,1.1c-0.6,0-1.1-0.5-1.1-1.1c0-0.6,0.5-1.1,1.1-1.1
		C124.6,71.5,125.1,72,125.1,72.6z"/>
	<line class="st2" x1="175.7" y1="102.2" x2="183.6" y2="116.1"/>
	<path class="st2" d="M176.8,102.2c0,0.6-0.5,1.1-1.1,1.1c-0.6,0-1.1-0.5-1.1-1.1c0-0.6,0.5-1.1,1.1-1.1
		C176.3,101.1,176.8,101.6,176.8,102.2z"/>
	<g>
		<path class="st3" d="M243,68c0-10.1,8.1-18.2,18.2-18.2s18.2,8.1,18.2,18.2v47.4c0,10.1-8.1,18.2-18.2,18.2s-18.2-8.1-18.2-18.2
			V68z M251.7,115.4c0,5.2,4.2,9.4,9.4,9.4c5.2,0,9.4-4.2,9.4-9.4V68c0-5.2-4.2-9.4-9.4-9.4c-5.2,0-9.4,4.2-9.4,9.4V115.4z"/>
		<path class="st3" d="M292.8,50.7h6.1l1.5,6.4c2.9-4.4,7.6-7.2,12.8-7.2c8.7,0,16,8.1,16,18.2v47.4c0,10.1-7.2,18.2-16,18.2
			c-4.5,0-8.7-2.2-11.6-5.7V159l-8.7,1V50.7z M301.5,115.4c0,5.2,4.2,9.4,9.4,9.4c5.2,0,9.4-4.2,9.4-9.4V68c0-5.2-4.2-9.4-9.4-9.4
			c-5.2,0-9.4,4.2-9.4,9.4V115.4z"/>
		<path class="st3" d="M378.2,104.6v10.8c0,10.1-8.1,18.2-18.2,18.2c-10.1,0-18.2-8.1-18.2-18.2V68c0-10.1,8.1-18.2,18.2-18.2
			c10.1,0,18.2,8.1,18.2,18.2v25.2h-27.6v22.2c0,5.2,4.2,9.4,9.4,9.4c5.2,0,9.4-4.2,9.4-9.4v-9.8L378.2,104.6z M350.6,84.5h18.8V68
			c0-5.2-4.2-9.4-9.4-9.4c-5.2,0-9.4,4.2-9.4,9.4V84.5z"/>
		<path class="st3" d="M391,132.7V50.7h6.1l1.5,6.4c2.9-4.4,7.6-7.2,12.8-7.2c8.7,0,16,8.1,16,18.2v64.7h-8.7V68
			c0-5.2-4.2-9.4-9.4-9.4c-5.2,0-9.4,4.2-9.4,9.4v64.7H391z"/>
		<path class="st4" d="M435.9,50.7h10.6V34.9l8.7-1v16.8h10.6v8.7h-10.6v62.1c0,1.9,1.5,3.4,3.4,3.4v8.7c-6.7,0-12.1-5.4-12.1-12.1
			V59.4h-10.6V50.7z"/>
		<path class="st4" d="M508.2,121c0,1.7,1.3,3,3,3v8.7c-3.5,0-6.7-1.5-8.9-3.9c-3.2,3-7.6,4.7-12.3,4.7c-10.1,0-18.2-8.1-18.2-18.2
			v-9.2c0-8.4,7.4-12.6,7.4-12.6l12.9-7.4c0,0,7.2-4.2,7.2-10.9V67c0-4.7-3.7-8.4-8.4-8.4c-4.7,0-8.4,3.7-8.4,8.4v9.8l-8.7,1V67
			c0-9.4,7.7-17.2,17.2-17.2c9.4,0,17.2,7.7,17.2,17.2V121z M480.6,115.4c0,5.2,4.2,9.4,9.4,9.4c5.2,0,9.4-4.2,9.4-9.4V91.5
			c-1.3,1.3-2.9,2.2-2.9,2.2l-12.9,7.4c0,0-3,1.7-3,5V115.4z"/>
		<path class="st4" d="M521,134.1c0-6.1,2.9-11.4,7.4-14.6c-1.7-2.2-2.5-5-2.5-8.1c0-2.9,0.8-5.7,2.5-7.9c-4.5-3.4-7.4-8.7-7.4-14.8
			V68c0-10.1,7.2-18.2,16-18.2c5.2,0,9.9,2.9,12.8,7.2l1.5-6.4h6.1v38c0,10.1-8.1,18.2-18.2,18.2c-2.5,0-4.5,2-4.5,4.5
			s2,4.5,4.5,4.5c10.1,0,18.2,8.1,18.2,18.2v7.7c0,10.1-8.1,18.2-18.2,18.2c-10.1,0-18.2-8.1-18.2-18.2V134.1z M548.5,68
			c0-5.2-4.2-9.4-9.4-9.4c-5.2,0-9.4,4.2-9.4,9.4v20.7c0,5.2,4.2,9.4,9.4,9.4c5.2,0,9.4-4.2,9.4-9.4V68z M529.7,141.8
			c0,5.2,4.2,9.4,9.4,9.4c5.2,0,9.4-4.2,9.4-9.4v-7.7c0-5.2-4.2-9.4-9.4-9.4c-5.2,0-9.4,4.2-9.4,9.4V141.8z"/>
	</g>
</g>
</svg>
