<svg id="Camada_1" data-name="Camada 1" xmlns="http://www.w3.org/2000/svg" viewBox="0 0 253.58 78.52">
  <defs>
    <style>
      .cls-1 {
        fill: none;
      }

      .cls-1, .cls-2, .cls-3 {
        stroke: #fff;
        stroke-miterlimit: 10;
      }

      .cls-2 {
        fill: #d2770f;
      }

      .cls-3, .cls-4 {
        fill: #fff;
      }

      .cls-4 {
        font-size: 75.07px;
        font-family: Dense-Regular, Dense;
      }

      .cls-5 {
        letter-spacing: 0em;
      }

      .cls-6, .cls-7 {
        fill: #d37825;
      }

      .cls-6 {
        letter-spacing: 0em;
      }
    </style>
  </defs>
  <title>logo</title>
  <g>
    <polygon class="cls-1" points="42.2 36.11 49.9 31.5 65.29 22.87 80.68 22.77 66.68 20.45 70.86 13.17 80.68 9.47 89.68 11.55 92.61 16.77 98.77 18.14 92.99 22.87 91.48 30.78 92.81 36.14 92.73 43.65 80.73 60.23 73.08 62.71 61.75 62.71 42.06 62.71 27.28 64.11 3.58 76.15 27.17 56.14 39.59 58.21 34.64 49.41 42.2 36.11"/>
    <polygon class="cls-2" points="80.68 22.77 80.61 49.26 57.61 36.14 80.68 22.77"/>
    <polygon class="cls-1" points="92.56 16.68 95.13 21.12 98.77 18.14 92.56 16.68"/>
    <line class="cls-1" x1="27.28" y1="64.22" x2="27.21" y2="56.29"/>
    <polygon class="cls-1" points="81.03 9.55 80.76 22.61 87.26 11.06 81.03 9.55"/>
    <line class="cls-1" x1="80.68" y1="22.87" x2="91.48" y2="30.78"/>
    <path class="cls-3" d="M230.32,71.08a.5.5,0,0,1-.5.49.49.49,0,0,1,0-1A.5.5,0,0,1,230.32,71.08Z" transform="translate(-149.14 -48.31)"/>
    <polyline class="cls-1" points="57.61 36.14 72.58 61.96 80.68 49.23"/>
    <line class="cls-1" x1="57.6" y1="27.18" x2="57.64" y2="36.22"/>
    <line class="cls-1" x1="57.76" y1="36.06" x2="42.12" y2="36.26"/>
    <line class="cls-1" x1="57.6" y1="36.07" x2="42.48" y2="62.74"/>
    <path class="cls-3" d="M207.23,84.35a.49.49,0,0,1-.49.49.5.5,0,1,1,0-1A.49.49,0,0,1,207.23,84.35Z" transform="translate(-149.14 -48.31)"/>
    <line class="cls-3" x1="80.69" y1="49.25" x2="84.22" y2="55.44"/>
    <path class="cls-3" d="M230.32,97.56a.49.49,0,1,1-.49-.49A.49.49,0,0,1,230.32,97.56Z" transform="translate(-149.14 -48.31)"/>
    <text class="cls-4" transform="translate(107.94 62.87)">ope<tspan class="cls-5" x="65.61" y="0">n</tspan><tspan class="cls-6" x="87.98" y="0">t</tspan><tspan class="cls-7" x="102.92" y="0">ag</tspan></text>
  </g>
</svg>
