<?xml version="1.0" encoding="utf-8"?>
<!-- Generator: Adobe Illustrator 24.2.3, SVG Export Plug-In . SVG Version: 6.00 Build 0)  -->
<svg version="1.1" id="Camada_1" xmlns="http://www.w3.org/2000/svg" xmlns:xlink="http://www.w3.org/1999/xlink" x="0px" y="0px"
	 viewBox="0 0 560 170" style="enable-background:new 0 0 560 170;" xml:space="preserve">
<style type="text/css">
	.st0{fill:#FFFFFF;}
	.st1{fill:#D37825;}
	.st2{fill:none;stroke:#FFFFFF;stroke-miterlimit:10;}
</style>
<g>
	<g>
		<path class="st0" d="M229.3,57.6c0-10.6,8.5-19.1,19.1-19.1c10.6,0,19.1,8.5,19.1,19.1v49.7c0,10.6-8.5,19.1-19.1,19.1
			c-10.6,0-19.1-8.5-19.1-19.1L229.3,57.6L229.3,57.6z M238.5,107.3c0,5.5,4.4,9.9,9.9,9.9c5.5,0,9.9-4.4,9.9-9.9V57.6
			c0-5.5-4.4-9.9-9.9-9.9c-5.5,0-9.9,4.4-9.9,9.9L238.5,107.3L238.5,107.3z"/>
		<path class="st0" d="M281.6,39.5h6.4l1.6,6.7c3-4.6,8-7.5,13.4-7.5c9.1,0,16.8,8.5,16.8,19.1v49.7c0,10.6-7.5,19.1-16.8,19.1
			c-4.7,0-9.1-2.3-12.2-6v32.5l-9.1,1V39.5H281.6z M290.7,107.3c0,5.5,4.4,9.9,9.9,9.9s9.9-4.4,9.9-9.9V57.6c0-5.5-4.4-9.9-9.9-9.9
			c-5.5,0-9.9,4.4-9.9,9.9V107.3z"/>
		<path class="st0" d="M371.1,96v11.3c0,10.6-8.5,19.1-19.1,19.1c-10.6,0-19.1-8.5-19.1-19.1V57.6c0-10.6,8.5-19.1,19.1-19.1
			c10.6,0,19.1,8.5,19.1,19.1v26.4h-28.9v23.3c0,5.5,4.4,9.9,9.9,9.9s9.9-4.4,9.9-9.9V97.1L371.1,96z M342.2,74.9h19.7V57.6
			c0-5.5-4.4-9.9-9.9-9.9c-5.5,0-9.9,4.4-9.9,9.9V74.9z"/>
		<path class="st0" d="M384.5,125.5v-86h6.4l1.6,6.7c3-4.6,8-7.5,13.4-7.5c9.1,0,16.8,8.5,16.8,19.1v67.8h-9.1V57.6
			c0-5.5-4.4-9.9-9.9-9.9c-5.5,0-9.9,4.4-9.9,9.9v67.8H384.5z"/>
		<path class="st1" d="M431.6,39.5h11.1V22.9l9.1-1v17.6H463v9.1h-11.1v65.1c0,2,1.6,3.6,3.6,3.6v9.1c-7,0-12.7-5.7-12.7-12.7V48.6
			h-11.1V39.5z"/>
		<path class="st1" d="M507.4,113.2c0,1.8,1.4,3.1,3.1,3.1v9.1c-3.7,0-7-1.6-9.3-4.1c-3.4,3.1-8,4.9-12.9,4.9
			c-10.6,0-19.1-8.5-19.1-19.1v-9.6c0-8.8,7.8-13.2,7.8-13.2l13.5-7.8c0,0,7.5-4.4,7.5-11.4v-8.6c0-4.9-3.9-8.8-8.8-8.8
			c-4.9,0-8.8,3.9-8.8,8.8v10.3l-9.1,1V56.6c0-9.9,8.1-18,18-18c9.9,0,18,8.1,18,18L507.4,113.2L507.4,113.2z M478.5,107.3
			c0,5.5,4.4,9.9,9.9,9.9c5.5,0,9.9-4.4,9.9-9.9V82.3c-1.4,1.4-3,2.3-3,2.3l-13.5,7.8c0,0-3.1,1.8-3.1,5.2V107.3z"/>
		<path class="st1" d="M520.8,127c0-6.4,3-12,7.8-15.3c-1.8-2.3-2.6-5.2-2.6-8.5c0-3,0.8-6,2.6-8.3c-4.7-3.6-7.8-9.1-7.8-15.5V57.6
			c0-10.6,7.5-19.1,16.8-19.1c5.5,0,10.4,3,13.4,7.5l1.6-6.7h6.4v39.8c0,10.6-8.5,19.1-19.1,19.1c-2.6,0-4.7,2.1-4.7,4.7
			c0,2.6,2.1,4.7,4.7,4.7c10.6,0,19.1,8.5,19.1,19.1v8.1c0,10.6-8.5,19.1-19.1,19.1c-10.6,0-19.1-8.5-19.1-19.1L520.8,127L520.8,127
			z M549.7,57.6c0-5.5-4.4-9.9-9.9-9.9s-9.9,4.4-9.9,9.9v21.7c0,5.5,4.4,9.9,9.9,9.9s9.9-4.4,9.9-9.9V57.6z M530,135
			c0,5.5,4.4,9.9,9.9,9.9s9.9-4.4,9.9-9.9V127c0-5.5-4.4-9.9-9.9-9.9s-9.9,4.4-9.9,9.9V135z"/>
	</g>
</g>
<g>
	<path class="st2" d="M1.9,158.3l49.2-41.9l24.6,3.8l-11.3-17.9l16.1-26.8l0.1-0.1l47.9-25.7l23.4,0.6l-21.7-4.9l8.3-15.9l20.2-6.4
		l16.7,3.7l7.6,11.3l14.6,2l-14,10.1l-3.1,15.9l2.7,11.6l0,0.1l-0.9,13.8l-0.1,0.1l-22.6,33.6l-17.6,5.2l-60.6,0.2L53,133.2
		L1.9,158.3z M51.4,117.7l-41.3,35.2L52.6,132l0.1,0l28.5-2.5l60.6-0.2l16.9-5l22.3-33.1l0.9-13.3l-2.7-11.6l3.2-16.6l11.9-8.6
		l-12.1-1.6l-7.6-11.4l-15.9-3.5l-19.4,6.1l-7.3,14l26.3,5.9l-0.2,1.2L128.8,51L81.3,76.4l-15.5,25.8l12.3,19.6L51.4,117.7z"/>
	
		<rect x="66.3" y="103.2" transform="matrix(0.5048 -0.8632 0.8632 0.5048 -41.7456 134.9265)" class="st2" width="61" height="1.2"/>
	
		<rect x="127.2" y="73.9" transform="matrix(0.8654 -0.501 0.501 0.8654 -34.6968 77.9646)" class="st2" width="1.2" height="59.4"/>
	
		<rect x="134.6" y="114.7" transform="matrix(0.499 -0.8666 0.8666 0.499 -24.45 188.3746)" class="st0" width="32.2" height="1.2"/>
	
		<rect x="161.8" y="100.5" transform="matrix(0.8847 -0.4662 0.4662 0.8847 -31.7826 88.1945)" class="st2" width="1.2" height="15.7"/>
	
		<rect x="95.6" y="60.9" transform="matrix(1.460051e-02 -0.9999 0.9999 1.460051e-02 18.5771 171.2615)" class="st2" width="1.2" height="30.5"/>
	
		<rect x="111.9" y="59" transform="matrix(1 -3.269105e-03 3.269105e-03 1 -0.2204 0.3683)" class="st2" width="1.2" height="17.1"/>
	<path class="st2" d="M158.1,54.6l0.9-31.1l14,2.8L158.1,54.6z M160.1,25l-0.7,24.3l11.6-22.2L160.1,25z"/>
	
		<rect x="50.8" y="117" transform="matrix(0.9999 -1.407722e-02 1.407722e-02 0.9999 -1.7534 0.7355)" class="st0" width="1.2" height="15.8"/>
	
		<rect x="169.2" y="46.1" transform="matrix(0.5834 -0.8122 0.8122 0.5834 22.8153 162.4677)" class="st2" width="1.2" height="25.8"/>
	<rect x="184.3" y="38.1" transform="matrix(0.8638 -0.5039 0.5039 0.8638 3.641 98.995)" class="st2" width="1.2" height="9.3"/>
	<g>
		<polygon class="st1" points="157.7,51.5 157.4,101.8 113.2,76.4 		"/>
		<path class="st2" d="M158.9,103.9l-47.8-27.5l48-27L158.9,103.9z M113.6,76.4l44.1,25.4l0.2-50.3L113.6,76.4z"/>
	</g>
	<g>
		<circle class="st2" cx="112.3" cy="76.4" r="1.6"/>
		<path class="st2" d="M112.3,78.6c-1.2,0-2.2-1-2.2-2.2c0-1.2,1-2.2,2.2-2.2s2.2,1,2.2,2.2C114.5,77.6,113.5,78.6,112.3,78.6z
			 M112.3,75.5c-0.5,0-0.9,0.4-0.9,0.9c0,0.5,0.4,0.9,0.9,0.9s0.9-0.4,0.9-0.9C113.3,75.9,112.9,75.5,112.3,75.5z"/>
	</g>
	<g>
		<path class="st2" d="M160.3,51.5c0,0.9-0.7,1.6-1.6,1.6c-0.9,0-1.6-0.7-1.6-1.6c0-0.9,0.7-1.6,1.6-1.6
			C159.6,49.9,160.3,50.6,160.3,51.5z"/>
		<path class="st2" d="M158.7,53.6c-1.2,0-2.2-1-2.2-2.2s1-2.2,2.2-2.2c1.2,0,2.2,1,2.2,2.2S159.9,53.6,158.7,53.6z M158.7,50.5
			c-0.5,0-0.9,0.4-0.9,0.9s0.4,0.9,0.9,0.9c0.5,0,0.9-0.4,0.9-0.9S159.2,50.5,158.7,50.5z"/>
	</g>
	<g>
		<path class="st2" d="M160.1,102c0,0.9-0.7,1.6-1.6,1.6c-0.9,0-1.6-0.7-1.6-1.6c0-0.9,0.7-1.6,1.6-1.6
			C159.4,100.5,160.1,101.1,160.1,102z"/>
		<path class="st2" d="M158.5,104.2c-1.2,0-2.2-1-2.2-2.2s1-2.2,2.2-2.2c1.2,0,2.2,1,2.2,2.2S159.7,104.2,158.5,104.2z M158.5,101.1
			c-0.5,0-0.9,0.4-0.9,0.9s0.4,0.9,0.9,0.9c0.5,0,0.9-0.4,0.9-0.9S159,101.1,158.5,101.1z"/>
	</g>
</g>
</svg>
