<?xml version="1.0" encoding="utf-8"?>
<!-- Generator: Adobe Illustrator 24.2.3, SVG Export Plug-In . SVG Version: 6.00 Build 0)  -->
<svg version="1.1" id="Camada_1" xmlns="http://www.w3.org/2000/svg" xmlns:xlink="http://www.w3.org/1999/xlink" x="0px" y="0px"
	 viewBox="0 0 250 250" style="enable-background:new 0 0 250 250;" xml:space="preserve">
<style type="text/css">
	.st0{fill:#FFFFFF;}
</style>
<g>
	<g>
		<path class="st0" d="M230.3,125h-3.9V43.1c0-10.8-8.7-19.5-19.5-19.5H43.1c-10.8,0-19.5,8.7-19.5,19.5v58.5h-3.9
			c-6.4,0-11.7,5.2-11.7,11.7v101.4c0,6.5,5.2,11.7,11.7,11.7h148.2c2.2,0,3.9-1.7,3.9-3.9c0-10.8-8.7-19.5-19.5-19.5h-11.7v-23.4
			h46.8v35.1c0,6.5,5.2,11.7,11.7,11.7h31.2c6.5,0,11.7-5.2,11.7-11.7v-78C242,130.2,236.8,125,230.3,125z M93.8,214.7
			c0,2.2-1.7,3.9-3.9,3.9H19.7c-2.2,0-3.9-1.7-3.9-3.9v-3.9h78V214.7z M93.8,203h-78v-89.7c0-2.2,1.7-3.9,3.9-3.9h70.2
			c2.2,0,3.9,1.7,3.9,3.9V203z M152.3,210.8c5,0,9.4,3.1,11,7.8h-62.5c0.5-1.2,0.7-2.6,0.7-3.9v-3.9L152.3,210.8L152.3,210.8z
			 M101.6,203v-23.4h7.8V203H101.6z M117.2,203v-23.4h15.6V203H117.2z M187.4,171.8h-85.8v-23.4h85.8V171.8z M92.1,101.5l-60.7,0
			V43.1c0-6.5,5.2-11.7,11.7-11.7h163.8c6.5,0,11.7,5.2,11.7,11.7V125h-19.5c-6.4,0-11.7,5.2-11.7,11.7v3.9h-85.8v-27.3V111
			C101.6,105.8,97.3,101.5,92.1,101.5z M234.2,214.7c0,2.2-1.7,3.9-3.9,3.9h-31.2c-2.2,0-3.9-1.7-3.9-3.9v-3.9h39V214.7L234.2,214.7
			z M234.2,203h-39v-66.3c0-2.2,1.7-3.9,3.9-3.9h31.2c2.2,0,3.9,1.7,3.9,3.9L234.2,203L234.2,203z"/>
	</g>
</g>
</svg>
