<?xml version="1.0" encoding="utf-8"?>
<!-- Generator: Adobe Illustrator 24.2.3, SVG Export Plug-In . SVG Version: 6.00 Build 0)  -->
<svg version="1.1" id="Camada_1" xmlns="http://www.w3.org/2000/svg" xmlns:xlink="http://www.w3.org/1999/xlink" x="0px" y="0px"
	 viewBox="0 0 250 250" style="enable-background:new 0 0 250 250;" xml:space="preserve">
<style type="text/css">
	.st0{fill:#FFFFFF;}
</style>
<g>
	<path class="st0" d="M237,212.2l-3.2-3.2c-1.7-1.7-4.4-1.7-6.1,0c-1.7,1.7-1.7,4.4,0,6.1l2.1,2.1l-12.6,12.6l-22.5-22.5l12.6-12.6
		l10.4,10.4c1.7,1.7,4.4,1.7,6.1,0c1.7-1.7,1.7-4.4,0-6.1l-31.2-31.2c-1.3-1.3-3-2-4.9-2c-1.8,0-3.4,0.6-4.7,1.8L172.5,157
		c8.3-10.6,14.1-22.6,17.1-35.7h22.5c2.4,0,4.3-1.9,4.3-4.3s-1.9-4.3-4.3-4.3h-21c0.2-1.5,0.3-2.9,0.5-4.4H228
		c2.4,0,4.3-1.9,4.3-4.3s-1.9-4.3-4.3-4.3h-36.1c0-1.5-0.1-3-0.2-4.4h20.5c2.4,0,4.3-1.9,4.3-4.3s-1.9-4.3-4.3-4.3h-21.4
		c-2.4-15-8.7-29.3-18.3-41.4c-0.7-0.9-1.7-1.5-2.9-1.6c-1.2-0.1-2.3,0.2-3.2,0.9c-0.9,0.7-1.5,1.7-1.6,2.9
		c-0.1,1.2,0.2,2.3,0.9,3.2c11.5,14.5,17.6,32,17.6,50.7c0,45.1-36.7,81.8-81.8,81.8s-81.8-36.7-81.8-81.8s36.7-81.8,81.8-81.8
		c20.4,0,40,7.5,55,21.3c1.8,1.5,4.4,1.4,6.1-0.3c1.5-1.8,1.4-4.4-0.3-6.1C145.7,19.3,124.1,11,101.6,11C51.6,11,11,51.6,11,101.4
		c0,43,30.4,80.2,72.5,88.6v21.5c0,2.4,1.9,4.3,4.3,4.3s4.3-1.9,4.3-4.3v-20.2c1.4,0.1,2.9,0.3,4.4,0.3v35.5c0,2.4,1.9,4.3,4.3,4.3
		s4.3-1.9,4.3-4.3v-35.4c1.5-0.1,2.9-0.1,4.4-0.3v20.1c0,2.4,1.9,4.3,4.3,4.3s4.3-1.9,4.3-4.3v-21.3c14.1-2.7,27.5-8.8,38.9-17.7
		l10.6,10.5c-1.2,1.3-1.8,2.9-1.8,4.7c0,1.9,0.7,3.6,2,4.9l44.4,44.4c1.3,1.3,3,2,4.9,2s3.6-0.7,4.9-2l15-15c1.3-1.3,2-3,2-4.9
		S238.3,213.5,237,212.2z M191.9,179.2l-12.6,12.6l-4.1-4.1l12.6-12.6L191.9,179.2z M166.9,163.6l10.1,10.1l-3.3,3.3l-10.1-10.1
		C164.8,165.8,165.9,164.7,166.9,163.6z M201.1,188.6l-12.6,12.6l-3.3-3.3l12.6-12.6L201.1,188.6z"/>
	<path class="st0" d="M54.7,162.8c13.4,10.1,29.5,15.5,46.7,15.7c42.6,0,77.2-34.6,77.2-77.2S144,24.1,101.4,24.1
		c-20.5,0-39.8,8-54.4,22.6c-14.4,14.6-22.5,34-22.8,54.7c-0.2,19,6.7,37.2,19.4,51.4c0.8,0.9,1.8,1.4,2.9,1.5
		c1.2,0.1,2.3-0.3,3.2-1.2c0.9-0.8,1.4-1.8,1.5-2.9c0.1-1.2-0.4-2.3-1.2-3.2c-11.2-12.5-17.3-28.7-17.2-45.5
		C33,83,40.2,65.8,53.1,52.9c12.9-12.9,30.1-20,48.3-20c37.8,0,68.5,30.7,68.5,68.5c0,37.8-30.7,68.5-68.5,68.5
		c-15.2-0.2-29.6-5-41.6-14c-1.9-1.4-4.6-1-6,0.9c-0.7,0.9-1,2-0.8,3.1C53.1,161.1,53.8,162.1,54.7,162.8z"/>
	<path class="st0" d="M114,41.2H91c-3.4,0-6.1,2.7-6.1,6.1V58H64.5c-3.4,0-6.1,2.7-6.1,6.1v34.5H55c-2.4,0-4.3,1.9-4.3,4.3
		s1.9,4.3,4.3,4.3h95c2.4,0,4.3-1.9,4.3-4.3s-1.9-4.3-4.3-4.3h-3.4V80.9c0-3.4-2.7-6.1-6.1-6.1h-20.4V47.3
		C120.1,43.9,117.4,41.2,114,41.2z M137.9,83.4v15.2H120V83.4H137.9z M111.5,49.9v48.8H93.6V49.9H111.5z M85,66.6v32H67.1v-32H85z"
		/>
	<path class="st0" d="M124.7,133.3l-6.8-17.5c-0.6-1.7-2.2-2.7-4-2.7c-1.8,0-3.4,1.1-4,2.9l-8.7,23.5l-5.9-16.6
		c-0.5-1.6-2-2.8-3.7-2.9c-1.7-0.1-3.3,0.7-4.1,2.2l-6.2,11.1H66.2c-2.4,0-4.3,1.9-4.3,4.3s1.9,4.3,4.3,4.3h17.5
		c1.6,0,3-0.8,3.8-2.2l2.8-5l6.7,18.9c0.7,1.7,2.2,2.8,4,2.8s3.4-1.1,4-2.9l8.9-24l3.7,9.6c0.6,1.7,2.2,2.7,4,2.7h17.9
		c2.4,0,4.3-1.9,4.3-4.3s-1.9-4.3-4.3-4.3H124.7z"/>
</g>
</svg>
