<?xml version="1.0" encoding="utf-8"?>
<!-- Generator: Adobe Illustrator 24.2.3, SVG Export Plug-In . SVG Version: 6.00 Build 0)  -->
<svg version="1.1" id="Camada_1" xmlns="http://www.w3.org/2000/svg" xmlns:xlink="http://www.w3.org/1999/xlink" x="0px" y="0px"
	 viewBox="0 0 250 250" style="enable-background:new 0 0 250 250;" xml:space="preserve">
<style type="text/css">
	.st0{fill:#FFFFFF;}
</style>
<g>
	<path class="st0" d="M195,31.9c-1.1-0.8-2.5-0.9-3.9-0.5l-33,13V17.1c0-4.7-3.9-8.6-8.6-8.6H71.1c-1.6,0-2.8,1.2-2.8,2.8v3.2
		c0,1.6,1.2,2.8,2.8,2.8h50l-2.1,11c-0.8,4.2-4.6,7.3-8.8,7.3H67.7c-4.2,0-7.9-3.1-8.8-7.3l-2.1-11h3.7c1.6,0,2.9-1.3,2.9-2.9v-3
		c0-1.6-1.3-2.9-2.9-2.9H29.7c-5.5,0-9.9,4.4-9.9,9.9v217.1c0,3.4,2.7,6.1,6.1,6.1h124.6c4.2,0,7.6-3.4,7.6-7.6v-94.5l33,13
		c1.3,0.5,2.8,0.3,3.9-0.5c1.2-0.8,1.8-2,1.8-3.4V126c0-1.3-1.1-2.4-2.4-2.4h-4c-1.3,0-2.4,1.1-2.4,2.4v12.5c0,0.7-0.3,1.4-0.9,1.8
		c-0.6,0.4-1.3,0.5-1.9,0.2l-55-21.6V64.6l55-21.6c0.7-0.2,1.4-0.2,1.9,0.2c0.6,0.4,0.9,1.1,0.9,1.8v71.4c0,1.3,1.1,2.4,2.4,2.4h4
		c1.3,0,2.4-1.1,2.4-2.4V35.3C196.8,33.9,196.1,32.7,195,31.9z M60.7,57.3c-1.6,0-3.1,0.6-4.3,1.7c-1.1,1.1-1.7,2.7-1.7,4.3v58.6
		c0,2.7,2.1,4.8,4.8,4.8h8.3c1.1,0,2.1,0.8,2.3,1.9L82.6,183c0.5,1.8,2.1,3.1,3.9,3.1h27.9c1.2,0,2.2-0.5,3.1-1.5
		c0.8-0.9,1.1-2.1,0.8-3.3l-7.6-33h5.9c2.3,0,4.1-1.8,4.1-4.1v-14.8c0-1.4,1.2-2.6,2.6-2.6h1.7l20.6,8.1c2.3,0.8,3.8,3,3.8,5.5
		l0.1,55.3c0,0.7-0.3,1.4-0.9,2c-0.5,0.5-1.1,0.8-1.9,0.8h-18.8c-1.3,0-2.4,1.1-2.4,2.4v3.9c0,1.3,1.1,2.4,2.4,2.4h16.7
		c2.6,0,4.8,2.2,4.8,4.8v16.5c0,2.3-1.9,4.2-4.2,4.2H32.6c-2.2,0-4-1.8-4-4v-16.8c0-2.6,2.2-4.8,4.8-4.8h0.5v-0.2h84.3
		c1.3,0,2.4-1.1,2.4-2.4v-3.9c0-1.3-1.1-2.4-2.4-2.4H32.7c-2.3,0-4.2-1.9-4.2-4.2V21.1c0-2.2,1.8-4,4-4h15.3l3.5,18.2
		c1.1,5.2,5.6,8.9,10.8,8.9h53.6c5.3,0,9.8-3.7,10.8-8.9l3.3-18.2h15.6c2.1,0,3.8,1.7,3.8,3.8v27l-24.4,9.5L60.7,57.3z M95.6,126.6
		c0.7,0,1.3,0.5,1.4,1.1l10.8,47.1c0.1,0.8,0,1.3-0.4,1.7c-0.4,0.5-0.9,0.7-1.5,0.7h-14c-0.9,0-1.7-0.6-1.9-1.5l-10.9-47.3
		c-0.1-0.5,0-1,0.3-1.3c0.3-0.3,0.8-0.6,1.2-0.6H95.6z M108.5,138.7l-2.6-11.1c-0.1-0.2,0-0.5,0.1-0.7c0.1-0.2,0.4-0.3,0.6-0.3h4.6
		c0.4,0,0.8,0.4,0.8,0.8v11.1c0,0.4-0.4,0.8-0.8,0.8h-1.9C109,139.3,108.6,139.1,108.5,138.7z M121.5,118H67.6
		c-2.2,0-4.1-1.9-4.1-4.1V70.4c0-2.2,1.9-4.1,4.1-4.1h53.9V118z"/>
	<path class="st0" d="M39.2,41.5H36c-1.6,0-2.8,1.2-2.8,2.8v3c0,1.6,1.2,2.8,2.8,2.8h3.2c0.8,0,1.6-0.3,2.1-0.9
		c0.5-0.5,0.7-1.2,0.7-1.9v-3C42,42.7,40.8,41.5,39.2,41.5z"/>
	<path class="st0" d="M39.7,28.2h-4.2c-1.3,0-2.3,1-2.3,2.3v4c0,1.3,1,2.3,2.3,2.3h4.2c0.6,0,1.3-0.3,1.8-0.8c0.4-0.4,0.6-1,0.5-1.5
		v-4C42,29.2,41,28.2,39.7,28.2z"/>
	<path class="st0" d="M39.8,54.9h-4.3c-1.2,0-2.2,1-2.2,2.2v17.8c0,1.2,1,2.2,2.2,2.2h4.3c0.6,0,1.2-0.3,1.7-0.7
		c0.4-0.4,0.6-1,0.5-1.6V57.1C42,55.9,41,54.9,39.8,54.9z"/>
	<path class="st0" d="M138.2,224.1h4.2c1.3,0,2.3-1,2.3-2.3v-4.2c0-1.3-1-2.3-2.3-2.3h-4.2c-1.3,0-2.3,1-2.3,2.3v4.2
		C135.9,223.1,136.9,224.1,138.2,224.1z"/>
	<path class="st0" d="M98.5,215.5H79.2c-1.3,0-2.3,1-2.3,2.3v4.2c0,1.3,1,2.3,2.3,2.3h19.4c0.7,0,1.3-0.2,1.7-0.7
		c0.4-0.4,0.6-1,0.5-1.6v-4.2C100.8,216.5,99.8,215.5,98.5,215.5z"/>
	<path class="st0" d="M203.9,50.8c1.5,1.2,2.9,2.4,4.2,3.8c0.3,0.3,0.7,0.4,1.2,0.4c0.3,0,0.8-0.2,1-0.5l4.1-3.7
		c0.3-0.2,0.5-0.6,0.5-1.1c0-0.5-0.2-0.9-0.4-1.1c-1.5-1.6-3.2-3.3-5.3-4.9c-0.3-0.3-0.8-0.3-1.2-0.3c-0.5,0-0.8,0.3-1.1,0.6
		l-3.4,4.5c-0.4,0.7-0.3,1.5,0.3,2.1L203.9,50.8z"/>
	<path class="st0" d="M220.4,56.3c-0.5-0.6-1-1-1.7-1.1c-0.6-0.1-1.4,0-2,0.4l-2.9,2c-1.2,0.7-1.5,2.3-0.8,3.6
		c5.4,8.5,8.3,19.5,8.3,30.8c0,16.6-6.5,32.1-16.9,40.6c-1.1,0.9-1.3,2.4-0.5,3.5l2.2,2.9c0.4,0.5,1,0.9,1.8,1h0.3
		c0.6,0,1.1-0.1,1.7-0.5c12.5-10.1,20.3-28.3,20.3-47.5C230.3,79.1,226.8,66.4,220.4,56.3z"/>
	<path class="st0" d="M208,91.8c-0.1,3.9-0.5,7.4-1.2,10.7c-0.1,0.4,0,0.8,0.2,1.2c0.2,0.3,0.6,0.5,0.9,0.6l5.6,1.3l1.1,0l0.1-0.1
		c0.4-0.3,0.6-0.6,0.7-1c0.9-4,1.3-8.2,1.3-12.5c0-9.8-2.3-19.3-6.6-26.8c-0.2-0.4-0.6-0.7-1.1-0.8c-0.4-0.1-0.9-0.2-1.4,0.2
		l-4.5,2.6c-0.8,0.4-1.2,1.5-0.7,2.4C206.1,75.6,208,83.5,208,91.8z"/>
	<path class="st0" d="M208.5,119.4h0.7l0.1,0c0.5-0.2,0.9-0.7,1.1-1l2.6-5.7c0.1-0.4,0.1-0.9,0-1.4c-0.1-0.6-0.6-1-1.1-1.2l-4.7-1.6
		c-1-0.3-1.9,0.2-2.3,1.1c-0.6,1.4-1.2,2.8-2.2,4.4c-0.5,0.8-0.2,1.9,0.7,2.5l4.2,2.5C207.8,119.3,208.2,119.4,208.5,119.4z"/>
	<path class="st0" d="M110.3,113.1h4c1.3,0,2.4-1.1,2.4-2.4v-4c0-1.3-1.1-2.4-2.4-2.4h-4c-1.3,0-2.4,1.1-2.4,2.4v4
		C107.9,112,109,113.1,110.3,113.1z"/>
</g>
</svg>
