<?xml version="1.0" encoding="utf-8"?>
<!-- Generator: Adobe Illustrator 24.2.3, SVG Export Plug-In . SVG Version: 6.00 Build 0)  -->
<svg version="1.1" id="Camada_1" xmlns="http://www.w3.org/2000/svg" xmlns:xlink="http://www.w3.org/1999/xlink" x="0px" y="0px"
	 viewBox="0 0 250 250" style="enable-background:new 0 0 250 250;" xml:space="preserve">
<style type="text/css">
	.st0{fill:#FFFFFF;}
</style>
<g>
	<path class="st0" d="M157.4,171.8L157.4,171.8c26.2-11.9,43.1-38.1,43.1-66.8c0-15.5-4.8-30.3-13.8-42.9c-1.4-2-4.2-2.4-6.2-1
		c-2,1.4-2.4,4.2-1,6.2c7.9,11,12.1,24,12.1,37.7c0,25.3-14.9,48.4-37.9,58.8c-4.9,2.3-8.1,7.2-8.1,12.4v14.4h-37.1v-14.4
		c0-5.3-3.1-10.1-8-12.4c-23.2-10.5-38.1-33.7-38-59.1c0.2-35.4,29.1-64.2,64.5-64.2c15.6,0,30.6,5.6,42.3,15.9
		c1.8,1.6,4.7,1.4,6.2-0.4c0.8-0.9,1.1-2,1.1-3.2c-0.1-1.2-0.6-2.3-1.5-3c-13.3-11.6-30.4-17.9-48.1-17.9
		c-19.5,0-37.9,7.6-51.7,21.3c-13.8,13.8-21.5,32.1-21.6,51.6C53.7,133.6,70.7,160,97,171.8c1.7,0.7,2.8,2.5,2.8,4.3v14.4h-0.2
		c-5,0-9,4-9,9v5.5c0,4.4,3.3,8.2,7.5,8.9l2.8,17.2c1.1,6.6,6.7,11.4,13.4,11.4h4.9c2.5,0,4.4-1.9,4.4-4.4c0-2.5-1.9-4.4-4.4-4.4
		h-4.9c-2.4,0-4.4-1.7-4.7-4.1l-2.5-15.6h4.1c2.5,0,4.4-1.9,4.4-4.4c0-2.5-1.9-4.4-4.4-4.4H99.6c-0.1,0-0.2-0.1-0.2-0.2v-5.5
		c0-0.1,0.1-0.2,0.2-0.2h55.1c0.1,0,0.2,0.1,0.2,0.2v5.5c0,0.1-0.1,0.2-0.2,0.2h-27.6c-2.5,0-4.4,1.9-4.4,4.4c0,2.5,1.9,4.4,4.4,4.4
		h20.1l-2.5,15.6c-0.4,2.4-2.4,4.1-4.7,4.1h-4.9c-2.5,0-4.4,1.9-4.4,4.4c0,2.5,1.9,4.4,4.4,4.4h4.9c6.7,0,12.3-4.8,13.4-11.4
		l2.8-17.2c4.3-0.7,7.5-4.5,7.5-8.9v-5.5c0-5-4-9-9-9h-0.2v-14.4C154.5,174.3,155.7,172.6,157.4,171.8z"/>
	<path class="st0" d="M90.8,107.3c-4.3,4.3-6.7,10-6.7,16.1v20.2c0,2.5,1.9,4.4,4.4,4.4h77.2c2.5,0,4.4-1.9,4.4-4.4v-20.2
		c0-12.6-10.2-22.8-22.8-22.8h-0.1c4.6-5,7.3-11.7,7.3-18.6c0-15.1-12.3-27.4-27.4-27.4c-15.1,0-27.3,12.3-27.3,27.5
		c0,6.8,2.6,13.5,7.3,18.6H107C100.9,100.7,95.2,103,90.8,107.3z M146.4,130c-2.5,0-4.4,1.9-4.4,4.4v4.8h-29.8v-4.8
		c0-2.5-1.9-4.4-4.4-4.4s-4.4,1.9-4.4,4.4v4.8H93v-15.8c0-7.7,6.3-14,14-14h40.3c7.7,0,14,6.3,14,14v15.8h-10.5v-4.8
		C150.8,131.9,148.9,130,146.4,130z M127.2,100.7c-10.3,0-18.6-8.3-18.6-18.6c0-10.3,8.3-18.6,18.6-18.6s18.6,8.3,18.6,18.6
		C145.8,92.4,137.5,100.7,127.2,100.7z"/>
	<path class="st0" d="M127.1,25.8c2.5,0,4.4-1.9,4.4-4.4v-9.2c0-2.5-1.9-4.4-4.4-4.4s-4.4,1.9-4.4,4.4v9.2
		C122.7,23.9,124.6,25.8,127.1,25.8z"/>
	<path class="st0" d="M81.5,34.8c0.7,1.4,2.2,2.2,3.9,2.2c0.9,0,1.7-0.2,2.3-0.7c1-0.6,1.7-1.5,2-2.6c0.3-1.2,0.1-2.4-0.5-3.4
		l-4.6-8c-0.6-1-1.5-1.7-2.6-2c-1.2-0.3-2.4-0.1-3.4,0.5c-1,0.6-1.7,1.5-2,2.6c-0.3,1.2-0.1,2.4,0.5,3.4L81.5,34.8z"/>
	<path class="st0" d="M44.6,62.5l8,4.6c0.7,0.4,1.5,0.6,2.2,0.6c1.6,0,3-0.8,3.9-2.2c1.2-2.1,0.5-4.8-1.6-6.1l-8-4.6
		c-2.1-1.2-4.8-0.5-6.1,1.6C41.8,58.6,42.4,61.2,44.6,62.5z"/>
	<path class="st0" d="M47.9,105c0-2.5-1.9-4.4-4.4-4.4h-9.2c-2.5,0-4.4,1.9-4.4,4.4s1.9,4.4,4.4,4.4h9.2
		C46,109.4,47.9,107.5,47.9,105z"/>
	<path class="st0" d="M52.5,143l-8,4.6c-1,0.6-1.7,1.5-2,2.6c-0.3,1.2-0.1,2.4,0.5,3.4c0.7,1.4,2.2,2.2,3.9,2.2
		c0.9,0,1.7-0.2,2.3-0.7l7.9-4.6c1-0.6,1.7-1.5,2-2.6c0.3-1.2,0.1-2.4-0.5-3.5C57.2,142.4,54.6,141.8,52.5,143z"/>
	<path class="st0" d="M166.7,36.4L166.7,36.4c0.7,0.4,1.5,0.7,2.2,0.7c1.6,0,3-0.8,3.9-2.2l4.6-8c1.2-2.1,0.5-4.8-1.6-6.1
		c-2.1-1.2-4.8-0.5-6.1,1.6l-4.6,8c-0.6,1-0.8,2.2-0.5,3.4C165,34.9,165.7,35.8,166.7,36.4z"/>
	<path class="st0" d="M199.5,67.6c0.9,0,1.7-0.2,2.3-0.7l7.9-4.6c1-0.6,1.7-1.5,2-2.6c0.3-1.2,0.1-2.4-0.5-3.4c-0.6-1-1.5-1.7-2.6-2
		c-1.2-0.3-2.4-0.1-3.4,0.5l-8,4.6c-1,0.6-1.7,1.5-2,2.6c-0.3,1.2-0.1,2.4,0.5,3.5C196.5,66.8,198,67.6,199.5,67.6z"/>
	<path class="st0" d="M219.9,100.6h-9.2c-2.5,0-4.4,1.9-4.4,4.4s1.9,4.4,4.4,4.4h9.2c2.5,0,4.4-1.9,4.4-4.4S222.4,100.6,219.9,100.6
		z"/>
	<path class="st0" d="M209.7,147.6l-8-4.6c-2.1-1.2-4.8-0.5-6.1,1.6c-1.2,2.1-0.5,4.8,1.6,6.1l8,4.6c0.7,0.4,1.5,0.6,2.2,0.6
		c1.6,0,3-0.8,3.9-2.2c0.6-1.1,0.8-2.3,0.5-3.4C211.4,149.1,210.7,148.2,209.7,147.6z"/>
</g>
</svg>
