<?xml version="1.0" encoding="utf-8"?>
<!-- Generator: Adobe Illustrator 22.0.1, SVG Export Plug-In . SVG Version: 6.00 Build 0)  -->
<svg version="1.1" id="Camada_1" xmlns="http://www.w3.org/2000/svg" xmlns:xlink="http://www.w3.org/1999/xlink" x="0px" y="0px"
	 viewBox="0 0 500 400" style="enable-background:new 0 0 500 400;" xml:space="preserve">
<style type="text/css">
	.st0{fill:none;stroke:#FFFFFF;stroke-width:2.1609;stroke-miterlimit:10;}
	.st1{fill:#D2770F;stroke:#FFFFFF;stroke-width:2.1609;stroke-miterlimit:10;}
	.st2{fill:#FFFFFF;stroke:#FFFFFF;stroke-width:2.1609;stroke-miterlimit:10;}
</style>
<g>
	<polygon class="st0" points="206.6,167.6 243.9,145.1 318.3,103.4 392.8,103 325.2,91.7 345.3,56.5 392.8,38.6 436.5,48.7 
		450.5,74 480.4,80.5 452.5,103.4 445.1,141.7 451.6,167.8 451.2,204.1 393.1,284.3 356.1,296.4 301.2,296.4 205.9,296.4 
		134.4,303.1 19.6,361.4 134,264.6 194,274.6 170,232 	"/>
	<polygon class="st1" points="392.8,103 392.6,231.1 281.1,167.8 	"/>
	<polygon class="st0" points="450.3,73.6 462.9,95 480.4,80.5 	"/>
	<line class="st0" x1="134.4" y1="303.5" x2="134" y2="265.3"/>
	<polygon class="st0" points="394.6,39 393.3,102.1 424.6,46.4 	"/>
	<line class="st0" x1="392.8" y1="103.4" x2="445.1" y2="141.7"/>
	<path class="st2" d="M395.2,103c0,1.3-1.1,2.4-2.4,2.4c-1.3,0-2.4-1.1-2.4-2.4c0-1.3,1.1-2.4,2.4-2.4
		C394.1,100.6,395.2,101.7,395.2,103z"/>
	<polyline class="st0" points="281.1,167.8 353.7,292.7 392.8,231.1 	"/>
	<line class="st0" x1="281.1" y1="124.4" x2="281.3" y2="168"/>
	<line class="st0" x1="282" y1="167.4" x2="206.1" y2="168.2"/>
	<line class="st0" x1="281.1" y1="167.4" x2="207.9" y2="296.4"/>
	<path class="st2" d="M283.5,167.2c0,1.3-1.1,2.4-2.4,2.4s-2.4-1.1-2.4-2.4s1.1-2.4,2.4-2.4S283.5,165.9,283.5,167.2z"/>
	<line class="st0" x1="392.8" y1="231.1" x2="409.9" y2="261.2"/>
	<path class="st2" d="M395.2,231.1c0,1.3-1.1,2.4-2.4,2.4c-1.3,0-2.4-1.1-2.4-2.4s1.1-2.4,2.4-2.4
		C394.1,228.7,395.2,229.8,395.2,231.1z"/>
</g>
</svg>
